<?xml version="1.0" standalone="no"?>
<!DOCTYPE svg PUBLIC "-//W3C//DTD SVG 20010904//EN"
 "http://www.w3.org/TR/2001/REC-SVG-20010904/DTD/svg10.dtd">
<svg version="1.0" xmlns="http://www.w3.org/2000/svg"
 width="28.000000pt" height="28.000000pt" viewBox="0 0 32.000000 32.000000"
 preserveAspectRatio="xMidYMid meet">

<g transform="translate(0.000000,32.000000) scale(0.100000,-0.100000)"
fill="#000000" stroke="none">
<path d="M20 256 c0 -19 5 -38 10 -41 6 -3 10 -46 10 -96 l0 -89 120 0 120 0
0 89 c0 50 4 93 10 96 6 3 10 22 10 41 l0 34 -140 0 -140 0 0 -34z m260 -6 c0
-19 -7 -20 -120 -20 -113 0 -120 1 -120 20 0 19 7 20 120 20 113 0 120 -1 120
-20z m-20 -120 l0 -80 -100 0 -100 0 0 80 0 80 100 0 100 0 0 -80z"/>
<path d="M110 160 c0 -5 23 -10 50 -10 28 0 50 5 50 10 0 6 -22 10 -50 10 -27
0 -50 -4 -50 -10z"/>
</g>
</svg>
