<svg xmlns="http://www.w3.org/2000/svg" xmlns:xlink="http://www.w3.org/1999/xlink" width="500" zoomAndPan="magnify" viewBox="0 0 375 374.999991" height="500" preserveAspectRatio="xMidYMid meet" version="1.0"><defs><g/><clipPath id="8fd77b79ec"><path d="M 78 175 L 301 175 L 301 238.613281 L 78 238.613281 Z M 78 175 " clip-rule="nonzero"/></clipPath><clipPath id="e59ad2ad9b"><path d="M 220.175781 219 L 231 219 L 231 226.183594 L 220.175781 226.183594 Z M 220.175781 219 " clip-rule="nonzero"/></clipPath><clipPath id="849272be57"><path d="M 239.035156 207.367188 C 239.035156 207.367188 235.976562 212.40625 231.863281 209.464844 L 220.269531 226.117188 L 244.753906 213.402344 Z M 239.035156 207.367188 " clip-rule="nonzero"/></clipPath><clipPath id="ea5d5097b2"><path d="M 201.882812 224 L 212 224 L 212 230.765625 L 201.882812 230.765625 Z M 201.882812 224 " clip-rule="nonzero"/></clipPath><clipPath id="180cd17eb3"><path d="M 226.757812 221.9375 C 226.757812 221.9375 221.878906 225.125 219.40625 220.648438 L 201.933594 230.523438 L 229.371094 229.914062 Z M 226.757812 221.9375 " clip-rule="nonzero"/></clipPath></defs><path fill="#ffffff" d="M 257.660156 99.347656 L 298.230469 99.347656 C 304.5 99.347656 309.179688 104.582031 307.894531 110.152344 L 294.9375 166.339844 L 294.9375 171.125 C 294.9375 174.058594 292.316406 176.4375 289.085938 176.4375 L 236.847656 176.4375 L 236.847656 156.175781 L 272.929688 153.632812 Z M 257.660156 99.347656 " fill-opacity="1" fill-rule="nonzero"/><path fill="#000000" d="M 269.0625 78.378906 C 269.089844 78.339844 269.671875 78.230469 270.507812 78.097656 C 273.714844 77.582031 276.621094 80.0625 276.617188 83.316406 L 276.574219 111.648438 L 267.050781 111.648438 Z M 269.0625 78.378906 " fill-opacity="1" fill-rule="nonzero"/><path fill="#ffffff" d="M 247.652344 93.667969 C 246.296875 93.667969 245.167969 92.597656 245.105469 91.226562 C 245.058594 90.246094 245.566406 89.34375 246.421875 88.871094 C 246.5 88.828125 246.597656 88.855469 246.640625 88.933594 C 246.683594 89.011719 246.652344 89.109375 246.578125 89.152344 C 245.828125 89.566406 245.386719 90.355469 245.425781 91.210938 C 245.480469 92.445312 246.542969 93.394531 247.753906 93.34375 C 248.351562 93.316406 248.902344 93.058594 249.300781 92.617188 C 249.703125 92.175781 249.910156 91.605469 249.882812 91.007812 C 249.878906 90.917969 249.945312 90.84375 250.035156 90.839844 C 250.125 90.824219 250.199219 90.90625 250.203125 90.992188 C 250.234375 91.675781 250 92.328125 249.539062 92.832031 C 249.078125 93.335938 248.453125 93.632812 247.769531 93.664062 C 247.730469 93.667969 247.691406 93.667969 247.652344 93.667969 Z M 247.652344 93.667969 " fill-opacity="1" fill-rule="nonzero"/><path fill="#000000" d="M 185.558594 220.859375 L 194.375 221.125 C 195.308594 221.15625 196.222656 221.847656 196.441406 222.835938 C 196.613281 223.617188 196.296875 224.445312 194.78125 225.261719 C 191.414062 227.070312 175.082031 232.273438 175.082031 232.273438 L 175.984375 234.039062 L 168.546875 236.734375 C 168.546875 236.734375 163.5 228.058594 164.960938 225.660156 Z M 185.558594 220.859375 " fill-opacity="1" fill-rule="nonzero"/><path fill="#ffad65" d="M 172.492188 218.042969 L 185.558594 220.859375 C 185.558594 220.859375 186.113281 224.875 179.699219 225.292969 C 173.289062 225.714844 164.960938 225.664062 164.960938 225.664062 L 163.90625 221.226562 Z M 172.492188 218.042969 " fill-opacity="1" fill-rule="nonzero"/><path fill="#ffad65" d="M 164.480469 222.210938 L 152.8125 197.382812 L 162.929688 191.363281 L 175.632812 220.933594 Z M 164.480469 222.210938 " fill-opacity="1" fill-rule="nonzero"/><path fill="#000000" d="M 148.601562 226.175781 L 154.769531 232.496094 C 155.421875 233.164062 155.597656 234.296875 155.074219 235.164062 C 154.65625 235.847656 153.855469 236.222656 152.199219 235.757812 C 148.519531 234.726562 133.152344 227.128906 133.152344 227.128906 L 132.578125 229.027344 L 125.355469 225.808594 C 125.355469 225.808594 127.71875 216.046875 130.429688 215.335938 Z M 148.601562 226.175781 " fill-opacity="1" fill-rule="nonzero"/><path fill="#ffad65" d="M 141.128906 215.074219 L 148.597656 226.179688 C 148.597656 226.179688 146.21875 229.460938 141.308594 225.308594 C 136.398438 221.15625 130.429688 215.335938 130.429688 215.335938 L 132.738281 211.40625 Z M 141.128906 215.074219 " fill-opacity="1" fill-rule="nonzero"/><path fill="#ffad65" d="M 132.472656 212.511719 L 141.238281 186.515625 L 152.695312 189.203125 L 141.394531 219.339844 Z M 132.472656 212.511719 " fill-opacity="1" fill-rule="nonzero"/><path fill="#000000" d="M 112.519531 71.761719 C 112.519531 72.28125 112.46875 72.800781 112.367188 73.3125 C 112.265625 73.824219 112.113281 74.320312 111.914062 74.800781 C 111.714844 75.285156 111.46875 75.742188 111.179688 76.175781 C 110.890625 76.609375 110.5625 77.011719 110.195312 77.378906 C 109.828125 77.75 109.425781 78.078125 108.992188 78.367188 C 108.558594 78.660156 108.101562 78.902344 107.621094 79.101562 C 107.140625 79.304688 106.644531 79.453125 106.132812 79.554688 C 105.621094 79.65625 105.105469 79.707031 104.585938 79.707031 C 104.066406 79.707031 103.546875 79.65625 103.039062 79.554688 C 102.527344 79.453125 102.03125 79.304688 101.550781 79.101562 C 101.070312 78.902344 100.609375 78.660156 100.179688 78.367188 C 99.746094 78.078125 99.34375 77.75 98.976562 77.378906 C 98.609375 77.011719 98.277344 76.609375 97.988281 76.175781 C 97.699219 75.742188 97.457031 75.285156 97.257812 74.800781 C 97.058594 74.320312 96.90625 73.824219 96.804688 73.3125 C 96.703125 72.800781 96.652344 72.28125 96.652344 71.761719 C 96.652344 71.238281 96.703125 70.722656 96.804688 70.210938 C 96.90625 69.699219 97.058594 69.199219 97.257812 68.71875 C 97.457031 68.234375 97.699219 67.777344 97.988281 67.34375 C 98.277344 66.910156 98.609375 66.507812 98.976562 66.140625 C 99.34375 65.769531 99.746094 65.441406 100.179688 65.152344 C 100.609375 64.863281 101.070312 64.617188 101.550781 64.417969 C 102.03125 64.21875 102.527344 64.066406 103.039062 63.964844 C 103.546875 63.863281 104.066406 63.8125 104.585938 63.8125 C 105.105469 63.8125 105.621094 63.863281 106.132812 63.964844 C 106.644531 64.066406 107.140625 64.21875 107.621094 64.417969 C 108.101562 64.617188 108.558594 64.863281 108.992188 65.152344 C 109.425781 65.441406 109.828125 65.769531 110.195312 66.140625 C 110.5625 66.507812 110.890625 66.910156 111.179688 67.34375 C 111.46875 67.777344 111.714844 68.234375 111.914062 68.71875 C 112.113281 69.199219 112.265625 69.699219 112.367188 70.210938 C 112.46875 70.722656 112.519531 71.238281 112.519531 71.761719 Z M 112.519531 71.761719 " fill-opacity="1" fill-rule="nonzero"/><g clip-path="url(#8fd77b79ec)"><path fill="#000000" d="M 225.765625 176.4375 L 216.097656 238.582031 L 209.734375 238.582031 L 217.75 175.535156 Z M 260.5 175.535156 L 267.894531 238.582031 L 275.273438 238.582031 L 269.378906 175.535156 Z M 284.179688 176.4375 L 293.847656 238.582031 L 300.210938 238.582031 L 292.195312 175.535156 Z M 109.609375 175.535156 L 103.714844 238.582031 L 111.09375 238.582031 L 118.484375 175.535156 Z M 86.792969 175.535156 L 78.777344 238.582031 L 85.140625 238.582031 L 94.808594 176.4375 Z M 86.792969 175.535156 " fill-opacity="1" fill-rule="nonzero"/></g><path fill="#ffffff" d="M 209.492188 230.523438 L 214.132812 228.746094 L 226.734375 228.929688 L 229.371094 229.914062 L 225.082031 231.449219 L 211.222656 231.449219 Z M 209.492188 230.523438 " fill-opacity="1" fill-rule="nonzero"/><path fill="#ffffff" d="M 244.753906 213.402344 L 230.972656 219.007812 L 216.617188 225.757812 L 217.644531 228.5625 L 233.28125 220.015625 L 244.550781 214.027344 Z M 244.753906 213.402344 " fill-opacity="1" fill-rule="nonzero"/><path fill="#ffffff" d="M 234.578125 197.878906 L 240.070312 209.925781 L 234.195312 213.21875 L 227.605469 201.445312 Z M 234.578125 197.878906 " fill-opacity="1" fill-rule="nonzero"/><path fill="#000000" d="M 239.035156 207.367188 C 239.035156 207.367188 235.976562 212.40625 231.863281 209.464844 L 220.269531 226.117188 L 244.753906 213.402344 Z M 239.035156 207.367188 " fill-opacity="1" fill-rule="nonzero"/><g clip-path="url(#e59ad2ad9b)"><g clip-path="url(#849272be57)"><path fill="#ffffff" d="M 220.589844 219.5625 C 220.589844 219.5625 227.105469 217.394531 230.398438 225.367188 L 218.472656 227.785156 Z M 220.589844 219.5625 " fill-opacity="1" fill-rule="nonzero"/></g></g><path fill="#ffffff" d="M 220.261719 226.121094 L 244.746094 213.40625 L 245.832031 215.601562 L 221.347656 228.320312 Z M 220.261719 226.121094 " fill-opacity="1" fill-rule="nonzero"/><path fill="#ffffff" d="M 232.039062 214.621094 C 231.957031 214.628906 231.878906 214.613281 231.800781 214.578125 C 230.222656 213.78125 228.957031 213.640625 228.945312 213.636719 C 228.695312 213.613281 228.523438 213.386719 228.5625 213.136719 C 228.597656 212.890625 228.832031 212.710938 229.078125 212.734375 C 229.136719 212.738281 230.507812 212.890625 232.238281 213.761719 C 232.460938 213.875 232.542969 214.148438 232.421875 214.371094 C 232.34375 214.519531 232.191406 214.609375 232.039062 214.621094 Z M 232.039062 214.621094 " fill-opacity="1" fill-rule="nonzero"/><path fill="#ffffff" d="M 230.53125 216.679688 C 230.453125 216.683594 230.371094 216.671875 230.296875 216.632812 C 228.71875 215.839844 227.453125 215.695312 227.441406 215.695312 C 227.191406 215.667969 227.019531 215.445312 227.054688 215.195312 C 227.089844 214.945312 227.328125 214.765625 227.570312 214.789062 C 227.628906 214.796875 229 214.949219 230.734375 215.820312 C 230.957031 215.929688 231.035156 216.203125 230.917969 216.429688 C 230.835938 216.578125 230.6875 216.667969 230.53125 216.679688 Z M 230.53125 216.679688 " fill-opacity="1" fill-rule="nonzero"/><path fill="#ffffff" d="M 229.023438 218.734375 C 228.945312 218.742188 228.863281 218.726562 228.789062 218.691406 C 227.210938 217.894531 225.945312 217.753906 225.933594 217.75 C 225.683594 217.726562 225.511719 217.5 225.550781 217.25 C 225.585938 217.003906 225.820312 216.820312 226.066406 216.847656 C 226.125 216.851562 227.496094 217.003906 229.226562 217.875 C 229.449219 217.988281 229.53125 218.257812 229.410156 218.484375 C 229.328125 218.632812 229.179688 218.722656 229.023438 218.734375 Z M 229.023438 218.734375 " fill-opacity="1" fill-rule="nonzero"/><path fill="#ffffff" d="M 226.734375 211.40625 L 226.613281 224.707031 L 219.925781 225.066406 L 218.945312 211.527344 Z M 226.734375 211.40625 " fill-opacity="1" fill-rule="nonzero"/><path fill="#000000" d="M 226.757812 221.9375 C 226.757812 221.9375 221.878906 225.125 219.40625 220.648438 L 201.933594 230.523438 L 229.371094 229.914062 Z M 226.757812 221.9375 " fill-opacity="1" fill-rule="nonzero"/><g clip-path="url(#ea5d5097b2)"><g clip-path="url(#180cd17eb3)"><path fill="#ffffff" d="M 204.988281 224.757812 C 204.988281 224.757812 211.777344 225.6875 211.386719 234.339844 L 199.613281 231.230469 Z M 204.988281 224.757812 " fill-opacity="1" fill-rule="nonzero"/></g></g><path fill="#ffffff" d="M 201.941406 230.53125 L 229.378906 229.921875 L 229.429688 232.382812 L 201.996094 232.992188 Z M 201.941406 230.53125 " fill-opacity="1" fill-rule="nonzero"/><path fill="#ffffff" d="M 217.390625 225.378906 C 217.316406 225.347656 217.25 225.296875 217.199219 225.230469 C 216.109375 223.816406 215.027344 223.125 215.019531 223.117188 C 214.804688 222.984375 214.742188 222.707031 214.882812 222.496094 C 215.019531 222.289062 215.308594 222.234375 215.515625 222.359375 C 215.566406 222.390625 216.742188 223.136719 217.933594 224.691406 C 218.085938 224.890625 218.046875 225.171875 217.84375 225.320312 C 217.707031 225.417969 217.535156 225.433594 217.390625 225.378906 Z M 217.390625 225.378906 " fill-opacity="1" fill-rule="nonzero"/><path fill="#ffffff" d="M 215.164062 226.5625 C 215.09375 226.535156 215.023438 226.484375 214.972656 226.417969 C 213.886719 225 212.804688 224.308594 212.792969 224.304688 C 212.582031 224.167969 212.519531 223.890625 212.65625 223.683594 C 212.792969 223.472656 213.082031 223.417969 213.292969 223.546875 C 213.34375 223.578125 214.515625 224.324219 215.710938 225.878906 C 215.863281 226.078125 215.820312 226.359375 215.617188 226.507812 C 215.484375 226.605469 215.3125 226.621094 215.164062 226.5625 Z M 215.164062 226.5625 " fill-opacity="1" fill-rule="nonzero"/><path fill="#ffffff" d="M 212.941406 227.75 C 212.867188 227.71875 212.800781 227.671875 212.75 227.605469 C 211.660156 226.1875 210.578125 225.496094 210.566406 225.488281 C 210.355469 225.355469 210.292969 225.078125 210.429688 224.867188 C 210.570312 224.660156 210.859375 224.601562 211.066406 224.734375 C 211.117188 224.765625 212.289062 225.507812 213.484375 227.0625 C 213.636719 227.261719 213.597656 227.542969 213.394531 227.695312 C 213.257812 227.792969 213.085938 227.808594 212.941406 227.75 Z M 212.941406 227.75 " fill-opacity="1" fill-rule="nonzero"/><path fill="#ff3e4d" d="M 272.574219 139.617188 L 272.574219 154.203125 C 272.574219 160.824219 267.21875 166.117188 260.773438 165.871094 L 236.710938 164.96875 L 233.726562 188.5 L 238.675781 203.929688 L 231.460938 206.378906 L 230.113281 217.011719 L 216.632812 215.957031 L 216.394531 185.878906 L 208.082031 168.484375 C 205.523438 163.128906 207.867188 156.773438 213.339844 154.207031 L 219.027344 151.546875 C 221.394531 148.464844 224.875 146.347656 228.824219 145.792969 Z M 272.574219 139.617188 " fill-opacity="1" fill-rule="nonzero"/><path fill="#ffffff" d="M 90.226562 91.355469 L 80.757812 91.355469 C 74.488281 91.355469 69.808594 97.132812 71.089844 103.277344 L 84.050781 165.292969 L 84.050781 170.574219 C 84.050781 173.8125 86.671875 176.4375 89.902344 176.4375 L 142.140625 176.4375 L 142.140625 154.074219 L 106.058594 151.269531 Z M 90.226562 91.355469 " fill-opacity="1" fill-rule="nonzero"/><path fill="#007785" d="M 152.695312 146.9375 L 162.207031 151.285156 C 168.574219 154.195312 171.296875 161.417969 168.320312 167.5 L 146.398438 212.296875 L 132.722656 207.769531 Z M 152.695312 146.9375 " fill-opacity="1" fill-rule="nonzero"/><path fill="#007785" d="M 93.289062 134.699219 L 93.289062 151.273438 C 93.289062 158.792969 99.515625 164.808594 107.015625 164.535156 L 135.011719 163.507812 L 159.101562 217.957031 L 172.921875 210.792969 L 158.910156 155.121094 C 157.234375 148.035156 151.386719 142.710938 144.1875 141.71875 Z M 93.289062 134.699219 " fill-opacity="1" fill-rule="nonzero"/><path fill="#000000" d="M 151.753906 201.5625 C 151.675781 201.5625 151.597656 201.515625 151.5625 201.4375 L 141.949219 179.703125 C 141.902344 179.597656 141.949219 179.472656 142.054688 179.425781 C 142.160156 179.378906 142.285156 179.425781 142.332031 179.53125 L 151.949219 201.265625 C 151.996094 201.375 151.949219 201.496094 151.839844 201.542969 C 151.8125 201.558594 151.785156 201.5625 151.753906 201.5625 Z M 151.753906 201.5625 " fill-opacity="1" fill-rule="nonzero"/><path fill="#000000" d="M 163.949219 176.644531 C 163.859375 176.644531 163.773438 176.585938 163.746094 176.496094 L 155.390625 148.320312 C 155.359375 148.207031 155.421875 148.089844 155.53125 148.058594 C 155.644531 148.023438 155.761719 148.089844 155.792969 148.199219 L 164.148438 176.375 C 164.183594 176.488281 164.121094 176.605469 164.007812 176.636719 C 163.988281 176.644531 163.96875 176.644531 163.949219 176.644531 Z M 163.949219 176.644531 " fill-opacity="1" fill-rule="nonzero"/><path fill="#000000" d="M 216.171875 185.632812 C 216.171875 185.632812 216.171875 185.632812 216.167969 185.632812 C 216.050781 185.632812 215.953125 185.53125 215.957031 185.40625 C 215.957031 185.285156 216.078125 173.152344 215.949219 164.296875 C 215.816406 155.359375 218.726562 151.566406 218.851562 151.410156 C 218.925781 151.316406 219.0625 151.300781 219.15625 151.378906 C 219.246094 151.457031 219.261719 151.59375 219.1875 151.691406 C 219.15625 151.726562 216.25 155.53125 216.378906 164.289062 C 216.511719 173.148438 216.390625 185.289062 216.386719 185.410156 C 216.386719 185.535156 216.289062 185.632812 216.171875 185.632812 Z M 216.171875 185.632812 " fill-opacity="1" fill-rule="nonzero"/><path fill="#000000" d="M 231.464844 206.597656 C 231.453125 206.597656 231.445312 206.59375 231.4375 206.59375 C 231.316406 206.578125 231.234375 206.46875 231.25 206.34375 L 233.460938 188.890625 C 233.476562 188.769531 233.578125 188.6875 233.703125 188.699219 C 233.824219 188.714844 233.90625 188.828125 233.890625 188.949219 L 231.679688 206.402344 C 231.664062 206.515625 231.570312 206.597656 231.464844 206.597656 Z M 231.464844 206.597656 " fill-opacity="1" fill-rule="nonzero"/><path fill="#ffffff" d="M 201.933594 230.523438 L 206.683594 229.648438 L 210.960938 230.324219 L 208.355469 231.261719 L 203.542969 231.261719 Z M 201.933594 230.523438 " fill-opacity="1" fill-rule="nonzero"/><path fill="#ffad65" d="M 137.722656 135.0625 L 162.554688 109.886719 L 159.800781 105.796875 C 159.800781 105.796875 142.070312 118.273438 130.746094 127.238281 C 128.949219 128.660156 130.046875 132.972656 131.605469 134.652344 C 133.070312 136.226562 136.148438 136.523438 137.722656 135.0625 Z M 137.722656 135.0625 " fill-opacity="1" fill-rule="nonzero"/><path fill="#ffad65" d="M 160.300781 110.582031 C 160.300781 110.582031 164.574219 110.914062 167.589844 107.472656 L 171.894531 106.277344 C 172.566406 106.09375 172.980469 105.445312 172.871094 104.761719 C 172.75 104.019531 172.058594 103.492188 171.308594 103.570312 L 168.617188 103.839844 L 169.359375 103.28125 C 170.539062 102.394531 172 101.933594 173.5 101.976562 L 177.773438 102.089844 C 178.257812 102.101562 178.707031 101.851562 178.941406 101.4375 C 179.394531 100.640625 178.878906 99.617188 177.945312 99.476562 L 172.347656 98.625 C 170.179688 98.296875 167.992188 98.898438 166.351562 100.285156 L 157.535156 107.734375 Z M 160.300781 110.582031 " fill-opacity="1" fill-rule="nonzero"/><path fill="#ffad65" d="M 123.125 99.207031 C 123.125 99.207031 125.261719 117.96875 129.660156 132.269531 C 130.191406 133.992188 133.484375 136.316406 135.277344 136.4375 C 137.984375 136.617188 140.1875 134.292969 139.875 131.59375 L 134.507812 98.101562 Z M 123.125 99.207031 " fill-opacity="1" fill-rule="nonzero"/><path fill="#ff3e4d" d="M 128.238281 87.539062 C 128.238281 87.539062 137.339844 92.972656 139.109375 107.691406 L 126.117188 114.84375 Z M 128.238281 87.539062 " fill-opacity="1" fill-rule="nonzero"/><path fill="#ff3e4d" d="M 126.117188 114.84375 L 140.863281 110.425781 L 139.605469 106.289062 L 126.449219 109.832031 Z M 126.117188 114.84375 " fill-opacity="1" fill-rule="nonzero"/><path fill="#ff3e4d" d="M 110.855469 82.941406 C 106.375 83.324219 101.957031 84.3125 97.785156 85.984375 C 96.761719 86.394531 95.753906 86.84375 94.832031 87.328125 C 91.929688 88.847656 92.800781 92.132812 93.164062 95.492188 L 94.871094 140.863281 L 131.40625 139.933594 L 132.855469 96.984375 C 133.175781 92.308594 130.414062 88.011719 126.140625 86.5 C 121.355469 84.808594 115.515625 82.917969 112.972656 82.761719 Z M 110.855469 82.941406 " fill-opacity="1" fill-rule="nonzero"/><path fill="#ff3e4d" d="M 123.988281 85.75 C 123.988281 85.75 117.265625 83.113281 112.96875 82.761719 C 112.96875 82.761719 107.105469 83.011719 103.074219 84.257812 C 103.074219 84.257812 105.308594 89.039062 115.605469 89.820312 C 125.902344 90.605469 123.988281 85.75 123.988281 85.75 Z M 123.988281 85.75 " fill-opacity="1" fill-rule="nonzero"/><path fill="#ffad65" d="M 74.460938 108.675781 L 91.644531 134.964844 L 87.015625 140.226562 L 68.050781 120.914062 Z M 74.460938 108.675781 " fill-opacity="1" fill-rule="nonzero"/><path fill="#ffad65" d="M 107.429688 136.164062 L 100.082031 132.277344 L 100.800781 130.601562 C 101.066406 129.992188 100.902344 129.273438 100.40625 128.851562 C 99.890625 128.414062 99.15625 128.398438 98.628906 128.820312 L 91.390625 134.726562 L 87.015625 140.226562 C 90.988281 143.761719 93.582031 143.714844 95.074219 143.03125 C 95.25 143.09375 95.421875 143.15625 95.601562 143.210938 L 101.707031 145.03125 C 102.273438 145.285156 102.929688 145.039062 103.207031 144.46875 C 103.410156 144.054688 103.480469 143.390625 102.304688 142.769531 L 103.480469 143.390625 C 104.078125 143.65625 104.769531 143.386719 105.050781 142.773438 C 105.3125 142.234375 104.992188 141.519531 104.300781 141.054688 L 105.199219 141.421875 C 105.851562 141.714844 106.617188 141.378906 106.863281 140.660156 C 107.074219 140.039062 106.757812 139.355469 106.191406 139.058594 L 104.894531 138.375 L 106.433594 138.761719 C 107.144531 139.023438 107.9375 138.628906 108.171875 137.855469 C 108.371094 137.191406 108.027344 136.480469 107.429688 136.164062 Z M 107.429688 136.164062 " fill-opacity="1" fill-rule="nonzero"/><path fill="#000000" d="M 105.285156 138.710938 C 105.261719 138.710938 105.242188 138.707031 105.21875 138.695312 L 100.875 136.5625 C 100.804688 136.527344 100.773438 136.441406 100.808594 136.371094 C 100.84375 136.300781 100.933594 136.269531 101 136.304688 L 105.347656 138.433594 C 105.417969 138.46875 105.449219 138.554688 105.414062 138.628906 C 105.386719 138.679688 105.335938 138.710938 105.285156 138.710938 Z M 105.285156 138.710938 " fill-opacity="1" fill-rule="nonzero"/><path fill="#000000" d="M 104.113281 141.117188 C 104.09375 141.117188 104.074219 141.113281 104.058594 141.105469 L 99.867188 139.292969 C 99.796875 139.261719 99.761719 139.175781 99.792969 139.105469 C 99.824219 139.03125 99.910156 138.996094 99.984375 139.027344 L 104.171875 140.84375 C 104.246094 140.875 104.277344 140.957031 104.246094 141.03125 C 104.222656 141.085938 104.171875 141.117188 104.113281 141.117188 Z M 104.113281 141.117188 " fill-opacity="1" fill-rule="nonzero"/><path fill="#000000" d="M 102.691406 143.074219 C 102.675781 143.074219 102.65625 143.070312 102.636719 143.0625 L 99.089844 141.605469 C 99.015625 141.578125 98.980469 141.492188 99.007812 141.417969 C 99.039062 141.34375 99.125 141.308594 99.199219 141.339844 L 102.746094 142.792969 C 102.820312 142.824219 102.855469 142.910156 102.824219 142.984375 C 102.804688 143.039062 102.75 143.074219 102.691406 143.074219 Z M 102.691406 143.074219 " fill-opacity="1" fill-rule="nonzero"/><path fill="#ffad65" d="M 98.558594 101.429688 L 76.710938 121.015625 C 74.671875 123.15625 71.453125 123.484375 69.054688 121.796875 C 66.027344 119.667969 65.503906 115.25 67.949219 112.425781 L 88.496094 91.5625 C 90.949219 88.722656 95.109375 88.371094 97.972656 90.761719 C 101.171875 93.433594 101.445312 98.394531 98.558594 101.429688 Z M 98.558594 101.429688 " fill-opacity="1" fill-rule="nonzero"/><path fill="#ff3e4d" d="M 99.039062 85.5 C 99.039062 85.5 90.265625 87.277344 79.375 100.824219 L 88.703125 113.367188 L 102.917969 102.789062 Z M 99.039062 85.5 " fill-opacity="1" fill-rule="nonzero"/><path fill="#ff3e4d" d="M 88.425781 113.558594 L 92.214844 110.738281 L 81.996094 96.566406 L 78.125 99.433594 Z M 88.425781 113.558594 " fill-opacity="1" fill-rule="nonzero"/><path fill="#000000" d="M 93.527344 110 C 93.460938 110 93.390625 109.96875 93.347656 109.910156 C 93.277344 109.808594 93.296875 109.671875 93.394531 109.597656 L 101.640625 103.460938 C 101.738281 103.386719 101.878906 103.40625 101.953125 103.507812 C 102.023438 103.605469 102.003906 103.746094 101.90625 103.816406 L 93.660156 109.957031 C 93.621094 109.984375 93.574219 110 93.527344 110 Z M 93.527344 110 " fill-opacity="1" fill-rule="nonzero"/><path fill="#000000" d="M 114.355469 50.605469 C 114.355469 50.605469 122.816406 48.109375 126.914062 51.757812 C 132.917969 57.105469 125.496094 61.140625 125.496094 61.140625 Z M 114.355469 50.605469 " fill-opacity="1" fill-rule="nonzero"/><path fill="#000000" d="M 127.234375 62.496094 C 127.265625 63.304688 127.210938 64.113281 127.074219 64.914062 C 126.9375 65.714844 126.722656 66.496094 126.425781 67.253906 C 126.128906 68.015625 125.757812 68.742188 125.308594 69.433594 C 124.863281 70.125 124.351562 70.769531 123.773438 71.363281 C 123.195312 71.960938 122.558594 72.496094 121.871094 72.972656 C 121.183594 73.449219 120.453125 73.855469 119.679688 74.195312 C 118.910156 74.53125 118.109375 74.796875 117.285156 74.984375 C 116.460938 75.175781 115.621094 75.285156 114.773438 75.316406 C 113.925781 75.347656 113.085938 75.296875 112.246094 75.171875 C 111.410156 75.042969 110.59375 74.839844 109.800781 74.554688 C 109.003906 74.273438 108.246094 73.921875 107.527344 73.496094 C 106.804688 73.074219 106.132812 72.585938 105.511719 72.035156 C 104.894531 71.484375 104.335938 70.878906 103.839844 70.222656 C 103.34375 69.566406 102.921875 68.867188 102.570312 68.132812 C 102.214844 67.394531 101.945312 66.632812 101.75 65.84375 C 101.554688 65.054688 101.441406 64.253906 101.414062 63.441406 C 101.382812 62.632812 101.4375 61.828125 101.574219 61.023438 C 101.710938 60.222656 101.925781 59.441406 102.222656 58.683594 C 102.519531 57.921875 102.890625 57.195312 103.339844 56.503906 C 103.785156 55.8125 104.296875 55.167969 104.875 54.574219 C 105.453125 53.980469 106.085938 53.441406 106.777344 52.964844 C 107.464844 52.492188 108.195312 52.082031 108.964844 51.742188 C 109.738281 51.40625 110.535156 51.140625 111.363281 50.953125 C 112.1875 50.765625 113.023438 50.652344 113.871094 50.621094 C 114.71875 50.589844 115.5625 50.640625 116.398438 50.765625 C 117.238281 50.894531 118.054688 51.101562 118.847656 51.382812 C 119.640625 51.664062 120.398438 52.015625 121.121094 52.441406 C 121.84375 52.863281 122.511719 53.351562 123.132812 53.902344 C 123.753906 54.453125 124.3125 55.058594 124.808594 55.714844 C 125.304688 56.371094 125.726562 57.070312 126.078125 57.804688 C 126.429688 58.542969 126.703125 59.304688 126.898438 60.09375 C 127.09375 60.882812 127.203125 61.683594 127.234375 62.496094 Z M 127.234375 62.496094 " fill-opacity="1" fill-rule="nonzero"/><path fill="#ffad65" d="M 129.90625 67.160156 C 129.90625 67.605469 129.820312 68.035156 129.652344 68.445312 C 129.480469 68.855469 129.242188 69.214844 128.925781 69.53125 C 128.613281 69.84375 128.25 70.085938 127.84375 70.257812 C 127.433594 70.425781 127.007812 70.511719 126.5625 70.511719 C 126.121094 70.511719 125.691406 70.425781 125.28125 70.257812 C 124.875 70.085938 124.511719 69.84375 124.199219 69.53125 C 123.886719 69.214844 123.644531 68.855469 123.472656 68.445312 C 123.304688 68.035156 123.21875 67.605469 123.21875 67.160156 C 123.21875 66.71875 123.304688 66.289062 123.472656 65.878906 C 123.644531 65.46875 123.886719 65.105469 124.199219 64.792969 C 124.511719 64.480469 124.875 64.238281 125.28125 64.066406 C 125.691406 63.898438 126.121094 63.8125 126.5625 63.8125 C 127.007812 63.8125 127.433594 63.898438 127.84375 64.066406 C 128.25 64.238281 128.613281 64.480469 128.925781 64.792969 C 129.242188 65.105469 129.480469 65.46875 129.652344 65.878906 C 129.820312 66.289062 129.90625 66.71875 129.90625 67.160156 Z M 129.90625 67.160156 " fill-opacity="1" fill-rule="nonzero"/><path fill="#ffad65" d="M 118.832031 74.917969 L 119.039062 87.691406 L 109.582031 87.496094 L 110.882812 68.121094 Z M 118.832031 74.917969 " fill-opacity="1" fill-rule="nonzero"/><path fill="#000000" d="M 118.941406 81.652344 L 111.863281 74.070312 L 118.832031 74.917969 Z M 118.941406 81.652344 " fill-opacity="1" fill-rule="nonzero"/><path fill="#ffad65" d="M 125.292969 55.246094 C 126.160156 55.929688 126.734375 56.910156 126.988281 57.984375 C 127.746094 61.164062 129.207031 66.761719 128.199219 70.203125 C 126.890625 74.675781 123.421875 77.941406 117.589844 77.050781 C 117.589844 77.050781 110.625 76.605469 108.878906 67.851562 C 106.09375 53.902344 117.851562 49.398438 125.292969 55.246094 Z M 125.292969 55.246094 " fill-opacity="1" fill-rule="nonzero"/><path fill="#000000" d="M 124.136719 68.964844 C 124.042969 68.964844 123.960938 68.902344 123.941406 68.808594 C 123.914062 68.699219 123.984375 68.589844 124.09375 68.566406 L 124.910156 68.382812 C 124.972656 68.363281 125.015625 68.285156 124.996094 68.207031 L 124.417969 66.796875 C 124.375 66.695312 124.425781 66.578125 124.527344 66.535156 C 124.632812 66.496094 124.746094 66.542969 124.789062 66.644531 L 125.375 68.082031 C 125.457031 68.394531 125.292969 68.683594 125.011719 68.769531 L 124.179688 68.960938 C 124.164062 68.960938 124.148438 68.964844 124.136719 68.964844 Z M 124.136719 68.964844 " fill-opacity="1" fill-rule="nonzero"/><path fill="#000000" d="M 120.957031 65.253906 C 120.957031 65.480469 120.878906 65.671875 120.71875 65.832031 C 120.558594 65.992188 120.367188 66.074219 120.140625 66.074219 C 119.917969 66.074219 119.726562 65.992188 119.566406 65.832031 C 119.40625 65.671875 119.328125 65.480469 119.328125 65.253906 C 119.328125 65.03125 119.40625 64.835938 119.566406 64.675781 C 119.726562 64.519531 119.917969 64.4375 120.140625 64.4375 C 120.367188 64.4375 120.558594 64.519531 120.71875 64.675781 C 120.878906 64.835938 120.957031 65.03125 120.957031 65.253906 Z M 120.957031 65.253906 " fill-opacity="1" fill-rule="nonzero"/><path fill="#000000" d="M 125.863281 64.972656 C 125.863281 65.394531 126.203125 65.730469 126.621094 65.730469 C 127.035156 65.730469 127.375 65.394531 127.375 64.972656 C 127.375 64.554688 127.035156 64.214844 126.621094 64.214844 C 126.203125 64.214844 125.863281 64.554688 125.863281 64.972656 Z M 125.863281 64.972656 " fill-opacity="1" fill-rule="nonzero"/><path fill="#000000" d="M 123.113281 71.242188 C 122.261719 71.242188 121.238281 71.019531 120.289062 70.230469 C 120.207031 70.160156 120.195312 70.03125 120.265625 69.945312 C 120.335938 69.863281 120.460938 69.851562 120.546875 69.921875 C 122.476562 71.527344 124.84375 70.515625 124.867188 70.503906 C 124.96875 70.457031 125.085938 70.503906 125.132812 70.605469 C 125.175781 70.707031 125.132812 70.828125 125.03125 70.871094 C 124.96875 70.898438 124.175781 71.242188 123.113281 71.242188 Z M 123.113281 71.242188 " fill-opacity="1" fill-rule="nonzero"/><path fill="#000000" d="M 125.480469 60.496094 C 125.480469 60.496094 125.175781 61.417969 126.320312 61.605469 C 127.1875 61.746094 127.738281 61.824219 128.222656 62.035156 C 128.496094 62.15625 128.820312 62.058594 128.984375 61.808594 C 129.117188 61.605469 129.121094 61.34375 128.988281 61.140625 C 128.71875 60.730469 128.144531 60.09375 127.089844 59.902344 C 125.738281 59.660156 125.480469 60.496094 125.480469 60.496094 Z M 125.480469 60.496094 " fill-opacity="1" fill-rule="nonzero"/><path fill="#000000" d="M 121.484375 60.535156 C 121.484375 60.535156 121.832031 61.460938 120.359375 61.625 C 119.242188 61.746094 117.90625 62.167969 117.273438 62.367188 C 116.914062 62.480469 116.507812 62.375 116.308594 62.121094 C 116.148438 61.917969 116.152344 61.65625 116.332031 61.453125 C 116.695312 61.050781 118.085938 60.070312 119.445312 59.90625 C 121.191406 59.695312 121.484375 60.535156 121.484375 60.535156 Z M 121.484375 60.535156 " fill-opacity="1" fill-rule="nonzero"/><path fill="#000000" d="M 122.59375 52.75 C 122.59375 52.75 123.933594 60.011719 106.433594 59.035156 C 106.433594 59.035156 105.414062 48.886719 122.59375 52.75 Z M 122.59375 52.75 " fill-opacity="1" fill-rule="nonzero"/><path fill="#000000" d="M 111.863281 57.550781 L 110.882812 68.121094 L 102.613281 61.082031 Z M 111.863281 57.550781 " fill-opacity="1" fill-rule="nonzero"/><path fill="#ffad65" d="M 104.402344 69.703125 C 105.09375 71.710938 107.273438 72.777344 109.273438 72.089844 C 111.277344 71.402344 112.34375 69.214844 111.65625 67.207031 C 110.96875 65.203125 108.785156 64.136719 106.785156 64.824219 C 104.78125 65.511719 103.714844 67.699219 104.402344 69.703125 Z M 104.402344 69.703125 " fill-opacity="1" fill-rule="nonzero"/><path fill="#000000" d="M 109.449219 69.492188 C 109.359375 69.492188 109.277344 69.429688 109.253906 69.332031 C 109.078125 68.523438 108.71875 67.964844 108.191406 67.675781 C 107.355469 67.21875 106.34375 67.585938 106.332031 67.585938 C 106.226562 67.625 106.113281 67.574219 106.074219 67.46875 C 106.035156 67.363281 106.085938 67.25 106.191406 67.210938 C 106.238281 67.191406 107.378906 66.773438 108.382812 67.320312 C 109.015625 67.667969 109.441406 68.316406 109.648438 69.246094 C 109.671875 69.355469 109.601562 69.464844 109.496094 69.488281 C 109.480469 69.492188 109.464844 69.492188 109.449219 69.492188 Z M 109.449219 69.492188 " fill-opacity="1" fill-rule="nonzero"/><path fill="#ffffff" d="M 116.730469 87.839844 L 109.992188 83.289062 L 110.058594 80.746094 L 108.894531 80.746094 C 108.414062 80.746094 107.953125 80.949219 107.613281 81.304688 L 105.503906 83.511719 L 110.355469 91.136719 C 110.863281 91.9375 111.917969 92.09375 112.617188 91.476562 Z M 116.730469 87.839844 " fill-opacity="1" fill-rule="nonzero"/><path fill="#ffffff" d="M 118.839844 80.746094 L 119.714844 80.746094 C 120.324219 80.746094 120.886719 81.0625 121.226562 81.589844 L 122.683594 83.878906 L 122.046875 90.484375 C 121.984375 91.160156 121.238281 91.492188 120.730469 91.082031 L 116.730469 87.839844 L 118.980469 83.886719 Z M 118.839844 80.746094 " fill-opacity="1" fill-rule="nonzero"/><path fill="#ffffff" d="M 117.425781 90.988281 C 117.425781 91.394531 117.113281 91.722656 116.730469 91.722656 C 116.34375 91.722656 116.03125 91.394531 116.03125 90.988281 C 116.03125 90.585938 116.34375 90.257812 116.730469 90.257812 C 117.113281 90.257812 117.425781 90.585938 117.425781 90.988281 Z M 117.425781 90.988281 " fill-opacity="1" fill-rule="nonzero"/><path fill="#ffffff" d="M 117.582031 93.90625 C 117.582031 94.308594 117.269531 94.636719 116.882812 94.636719 C 116.5 94.636719 116.1875 94.308594 116.1875 93.90625 C 116.1875 93.5 116.5 93.171875 116.882812 93.171875 C 117.269531 93.171875 117.582031 93.5 117.582031 93.90625 Z M 117.582031 93.90625 " fill-opacity="1" fill-rule="nonzero"/><path fill="#000000" d="M 132.195312 115.414062 C 132.183594 115.414062 132.167969 115.410156 132.15625 115.40625 C 132.070312 115.382812 132.023438 115.296875 132.042969 115.214844 C 132.070312 115.121094 134.460938 105.960938 130.011719 99.03125 C 129.964844 98.957031 129.988281 98.859375 130.058594 98.8125 C 130.132812 98.765625 130.230469 98.789062 130.277344 98.859375 C 134.800781 105.910156 132.371094 115.203125 132.347656 115.296875 C 132.328125 115.367188 132.265625 115.414062 132.195312 115.414062 Z M 132.195312 115.414062 " fill-opacity="1" fill-rule="nonzero"/><path fill="#ffad65" d="M 272.992188 79.617188 C 272.992188 80.015625 272.914062 80.402344 272.765625 80.773438 C 272.617188 81.144531 272.402344 81.472656 272.125 81.757812 C 271.847656 82.042969 271.53125 82.261719 271.167969 82.414062 C 270.804688 82.570312 270.429688 82.644531 270.039062 82.644531 C 269.644531 82.644531 269.269531 82.570312 268.90625 82.414062 C 268.546875 82.261719 268.226562 82.042969 267.949219 81.757812 C 267.671875 81.472656 267.460938 81.144531 267.308594 80.773438 C 267.160156 80.402344 267.085938 80.015625 267.085938 79.617188 C 267.085938 79.214844 267.160156 78.828125 267.308594 78.457031 C 267.460938 78.085938 267.671875 77.757812 267.949219 77.472656 C 268.226562 77.1875 268.546875 76.96875 268.90625 76.816406 C 269.269531 76.664062 269.644531 76.585938 270.039062 76.585938 C 270.429688 76.585938 270.804688 76.664062 271.167969 76.816406 C 271.53125 76.96875 271.847656 77.1875 272.125 77.472656 C 272.402344 77.757812 272.617188 78.085938 272.765625 78.457031 C 272.914062 78.828125 272.992188 79.214844 272.992188 79.617188 Z M 272.992188 79.617188 " fill-opacity="1" fill-rule="nonzero"/><path fill="#000000" d="M 258.378906 70.699219 C 258.378906 70.699219 250.28125 68.859375 246.671875 72.636719 C 241.382812 78.171875 248.605469 81.554688 248.605469 81.554688 Z M 258.378906 70.699219 " fill-opacity="1" fill-rule="nonzero"/><path fill="#000000" d="M 271.332031 81.765625 C 271.382812 82.542969 271.355469 83.320312 271.25 84.09375 C 271.144531 84.871094 270.960938 85.625 270.703125 86.367188 C 270.445312 87.105469 270.117188 87.816406 269.71875 88.492188 C 269.320312 89.167969 268.855469 89.800781 268.328125 90.386719 C 267.800781 90.976562 267.222656 91.507812 266.589844 91.984375 C 265.957031 92.460938 265.28125 92.871094 264.566406 93.21875 C 263.847656 93.566406 263.105469 93.839844 262.335938 94.042969 C 261.566406 94.246094 260.78125 94.375 259.984375 94.425781 C 259.191406 94.480469 258.398438 94.453125 257.605469 94.351562 C 256.816406 94.253906 256.042969 94.078125 255.289062 93.828125 C 254.535156 93.578125 253.8125 93.257812 253.121094 92.867188 C 252.433594 92.476562 251.789062 92.027344 251.1875 91.511719 C 250.589844 91 250.050781 90.433594 249.5625 89.8125 C 249.078125 89.195312 248.660156 88.535156 248.308594 87.835938 C 247.957031 87.132812 247.679688 86.40625 247.476562 85.652344 C 247.269531 84.898438 247.140625 84.132812 247.089844 83.355469 C 247.039062 82.574219 247.066406 81.796875 247.171875 81.023438 C 247.277344 80.25 247.460938 79.492188 247.71875 78.75 C 247.976562 78.011719 248.304688 77.304688 248.703125 76.625 C 249.101562 75.949219 249.566406 75.316406 250.09375 74.730469 C 250.621094 74.140625 251.199219 73.609375 251.832031 73.132812 C 252.464844 72.65625 253.140625 72.246094 253.855469 71.898438 C 254.574219 71.550781 255.316406 71.277344 256.085938 71.074219 C 256.855469 70.871094 257.640625 70.742188 258.4375 70.691406 C 259.230469 70.640625 260.023438 70.664062 260.816406 70.765625 C 261.605469 70.867188 262.378906 71.039062 263.132812 71.289062 C 263.886719 71.539062 264.609375 71.859375 265.300781 72.25 C 265.988281 72.640625 266.632812 73.089844 267.234375 73.605469 C 267.832031 74.121094 268.375 74.6875 268.859375 75.304688 C 269.34375 75.925781 269.761719 76.582031 270.113281 77.285156 C 270.464844 77.984375 270.742188 78.710938 270.945312 79.464844 C 271.152344 80.21875 271.28125 80.984375 271.332031 81.765625 Z M 271.332031 81.765625 " fill-opacity="1" fill-rule="nonzero"/><path fill="#ffad65" d="M 251.136719 87.410156 C 251.136719 87.835938 251.058594 88.246094 250.898438 88.644531 C 250.738281 89.039062 250.511719 89.386719 250.21875 89.6875 C 249.921875 89.992188 249.582031 90.222656 249.195312 90.386719 C 248.8125 90.550781 248.410156 90.632812 247.996094 90.632812 C 247.578125 90.632812 247.175781 90.550781 246.792969 90.386719 C 246.40625 90.222656 246.066406 89.992188 245.773438 89.6875 C 245.476562 89.386719 245.25 89.039062 245.089844 88.644531 C 244.929688 88.246094 244.851562 87.835938 244.851562 87.410156 C 244.851562 86.980469 244.929688 86.570312 245.089844 86.175781 C 245.25 85.777344 245.476562 85.429688 245.773438 85.128906 C 246.066406 84.824219 246.40625 84.59375 246.792969 84.429688 C 247.175781 84.265625 247.578125 84.183594 247.996094 84.183594 C 248.410156 84.183594 248.8125 84.265625 249.195312 84.429688 C 249.582031 84.59375 249.921875 84.824219 250.21875 85.128906 C 250.511719 85.429688 250.738281 85.777344 250.898438 86.175781 C 251.058594 86.570312 251.136719 86.980469 251.136719 87.410156 Z M 251.136719 87.410156 " fill-opacity="1" fill-rule="nonzero"/><path fill="#ffad65" d="M 255.742188 94.34375 L 256.375 106.625 L 265.230469 105.8125 L 262.761719 87.292969 Z M 255.742188 94.34375 " fill-opacity="1" fill-rule="nonzero"/><path fill="#000000" d="M 256.074219 100.820312 L 262.222656 93.070312 L 255.742188 94.34375 Z M 256.074219 100.820312 " fill-opacity="1" fill-rule="nonzero"/><path fill="#ffad65" d="M 248.417969 75.878906 C 247.644531 76.59375 247.171875 77.574219 247.003906 78.621094 C 246.496094 81.726562 245.488281 87.199219 246.65625 90.4375 C 248.171875 94.648438 251.636719 97.554688 257.046875 96.3125 C 257.046875 96.3125 263.546875 95.421875 264.625 86.898438 C 266.339844 73.320312 255.019531 69.773438 248.417969 75.878906 Z M 248.417969 75.878906 " fill-opacity="1" fill-rule="nonzero"/><path fill="#000000" d="M 250.375 88.976562 C 250.363281 88.976562 250.355469 88.976562 250.34375 88.972656 L 249.5625 88.851562 C 249.28125 88.785156 249.109375 88.515625 249.160156 88.238281 L 249.621094 86.796875 C 249.65625 86.695312 249.761719 86.640625 249.863281 86.675781 C 249.964844 86.707031 250.015625 86.816406 249.984375 86.914062 L 249.527344 88.332031 C 249.519531 88.386719 249.566406 88.460938 249.636719 88.476562 L 250.402344 88.597656 C 250.507812 88.613281 250.578125 88.710938 250.5625 88.816406 C 250.546875 88.910156 250.464844 88.976562 250.375 88.976562 Z M 250.375 88.976562 " fill-opacity="1" fill-rule="nonzero"/><path fill="#000000" d="M 254.660156 85.152344 C 254.660156 85.371094 254.582031 85.554688 254.433594 85.707031 C 254.285156 85.863281 254.105469 85.9375 253.890625 85.9375 C 253.679688 85.9375 253.5 85.863281 253.351562 85.707031 C 253.199219 85.554688 253.125 85.371094 253.125 85.152344 C 253.125 84.933594 253.199219 84.75 253.351562 84.597656 C 253.5 84.441406 253.679688 84.367188 253.890625 84.367188 C 254.105469 84.367188 254.285156 84.441406 254.433594 84.597656 C 254.582031 84.75 254.660156 84.933594 254.660156 85.152344 Z M 254.660156 85.152344 " fill-opacity="1" fill-rule="nonzero"/><path fill="#000000" d="M 248.511719 85.261719 C 248.535156 85.660156 248.242188 86.011719 247.847656 86.039062 C 247.457031 86.066406 247.117188 85.761719 247.089844 85.359375 C 247.0625 84.957031 247.359375 84.609375 247.75 84.582031 C 248.144531 84.554688 248.484375 84.859375 248.511719 85.261719 Z M 248.511719 85.261719 " fill-opacity="1" fill-rule="nonzero"/><path fill="#000000" d="M 251.15625 91.09375 C 250.304688 91.09375 249.679688 90.871094 249.667969 90.867188 C 249.570312 90.832031 249.519531 90.71875 249.554688 90.621094 C 249.59375 90.523438 249.703125 90.472656 249.800781 90.507812 C 249.824219 90.515625 252.105469 91.332031 253.8125 89.664062 C 253.886719 89.589844 254.007812 89.589844 254.082031 89.664062 C 254.15625 89.742188 254.152344 89.863281 254.078125 89.933594 C 253.128906 90.863281 252.023438 91.09375 251.15625 91.09375 Z M 251.15625 91.09375 " fill-opacity="1" fill-rule="nonzero"/><path fill="#000000" d="M 248.578125 80.9375 C 248.578125 80.9375 248.921875 81.796875 247.863281 82.054688 C 247.0625 82.25 246.550781 82.359375 246.109375 82.59375 C 245.859375 82.726562 245.550781 82.652344 245.378906 82.425781 C 245.242188 82.238281 245.222656 81.988281 245.332031 81.785156 C 245.558594 81.371094 246.054688 80.722656 247.03125 80.472656 C 248.285156 80.148438 248.578125 80.9375 248.578125 80.9375 Z M 248.578125 80.9375 " fill-opacity="1" fill-rule="nonzero"/><path fill="#000000" d="M 252.332031 80.707031 C 252.332031 80.707031 252.0625 81.621094 253.453125 81.679688 C 254.511719 81.722656 255.792969 82.039062 256.398438 82.191406 C 256.742188 82.273438 257.117188 82.148438 257.285156 81.890625 C 257.421875 81.679688 257.402344 81.429688 257.222656 81.25 C 256.855469 80.886719 255.484375 80.035156 254.203125 79.96875 C 252.550781 79.882812 252.332031 80.707031 252.332031 80.707031 Z M 252.332031 80.707031 " fill-opacity="1" fill-rule="nonzero"/><path fill="#000000" d="M 250.789062 73.304688 C 250.789062 73.304688 250 80.367188 266.347656 78.273438 C 266.347656 78.273438 266.652344 68.453125 250.789062 73.304688 Z M 250.789062 73.304688 " fill-opacity="1" fill-rule="nonzero"/><path fill="#000000" d="M 261.160156 77.203125 L 262.761719 87.292969 L 270.0625 79.984375 Z M 261.160156 77.203125 " fill-opacity="1" fill-rule="nonzero"/><path fill="#ffad65" d="M 268.9375 88.382812 C 268.421875 90.355469 266.449219 91.527344 264.523438 90.996094 C 262.601562 90.46875 261.460938 88.441406 261.976562 86.464844 C 262.492188 84.492188 264.46875 83.324219 266.394531 83.851562 C 268.316406 84.382812 269.453125 86.410156 268.9375 88.382812 Z M 268.9375 88.382812 " fill-opacity="1" fill-rule="nonzero"/><path fill="#000000" d="M 264.179688 88.511719 C 264.171875 88.511719 264.160156 88.511719 264.152344 88.507812 C 264.046875 88.492188 263.976562 88.398438 263.992188 88.292969 C 264.125 87.375 264.488281 86.71875 265.074219 86.347656 C 265.976562 85.773438 267.058594 86.097656 267.105469 86.109375 C 267.207031 86.140625 267.261719 86.246094 267.234375 86.347656 C 267.203125 86.449219 267.097656 86.503906 266.996094 86.476562 C 266.984375 86.472656 266.027344 86.191406 265.277344 86.671875 C 264.789062 86.980469 264.484375 87.542969 264.367188 88.347656 C 264.355469 88.441406 264.273438 88.511719 264.179688 88.511719 Z M 264.179688 88.511719 " fill-opacity="1" fill-rule="nonzero"/><path fill="#007785" d="M 249.207031 107.375 C 249.207031 107.375 242.847656 107.015625 241.066406 113.511719 C 239.550781 119.027344 233.785156 131.785156 233.875 138.386719 C 233.882812 138.832031 234.015625 139.304688 234.242188 139.761719 C 235.140625 141.566406 237.230469 142.394531 239.128906 141.832031 L 241.507812 141.132812 L 250.882812 119.574219 Z M 249.207031 107.375 " fill-opacity="1" fill-rule="nonzero"/><path fill="#007785" d="M 265.109375 104.878906 L 275.476562 104.148438 C 276.625 104.066406 276.554688 105.039062 276.601562 106.21875 C 276.800781 111.347656 275.867188 126.042969 272.574219 141.132812 L 248.1875 143.128906 L 243.976562 112.40625 C 243.914062 110.816406 245.992188 107.972656 247.484375 107.523438 L 255.894531 105.53125 Z M 265.109375 104.878906 " fill-opacity="1" fill-rule="nonzero"/><path fill="#000000" d="M 245.824219 129.808594 C 245.757812 129.808594 245.695312 129.773438 245.660156 129.710938 C 245.609375 129.621094 240.75 120.679688 246.628906 113.75 C 246.699219 113.671875 246.816406 113.660156 246.898438 113.730469 C 246.980469 113.796875 246.988281 113.917969 246.921875 114 C 241.214844 120.722656 245.945312 129.4375 245.992188 129.523438 C 246.042969 129.617188 246.011719 129.730469 245.917969 129.785156 C 245.886719 129.800781 245.855469 129.808594 245.824219 129.808594 Z M 245.824219 129.808594 " fill-opacity="1" fill-rule="nonzero"/><path fill="#ffad65" d="M 267.585938 104.707031 L 259.179688 104.75 L 253.480469 106.101562 C 253.480469 106.101562 251.167969 110.953125 258.058594 110.464844 C 264.949219 109.976562 267.476562 105.457031 267.585938 104.707031 Z M 267.585938 104.707031 " fill-opacity="1" fill-rule="nonzero"/><path fill="#007785" d="M 270.886719 108.960938 C 270.640625 114.238281 268.726562 126.132812 266.707031 133.257812 C 266.226562 134.945312 266.625 136.765625 267.804688 138.039062 C 270.125 140.542969 274.226562 139.859375 275.566406 136.6875 C 276.96875 133.378906 279.601562 125.773438 280.171875 119.8125 C 280.632812 115.011719 280.769531 111.589844 280.753906 109.175781 C 280.738281 106.25 278.324219 103.945312 275.476562 104.148438 C 272.980469 104.324219 271.007812 106.390625 270.886719 108.960938 Z M 270.886719 108.960938 " fill-opacity="1" fill-rule="nonzero"/><path fill="#000000" d="M 268.246094 126.59375 C 268.238281 126.59375 268.230469 126.59375 268.222656 126.59375 C 268.117188 126.582031 268.042969 126.484375 268.058594 126.378906 L 269.832031 112.5625 C 269.847656 112.457031 269.9375 112.382812 270.046875 112.394531 C 270.152344 112.410156 270.226562 112.503906 270.210938 112.609375 L 268.4375 126.429688 C 268.421875 126.523438 268.339844 126.59375 268.246094 126.59375 Z M 268.246094 126.59375 " fill-opacity="1" fill-rule="nonzero"/><path fill="#ffad65" d="M 257.417969 138.742188 C 257.417969 138.742188 249.195312 140.71875 246.84375 137.558594 L 253.992188 134.890625 L 256.136719 133.914062 Z M 257.417969 138.742188 " fill-opacity="1" fill-rule="nonzero"/><path fill="#007785" d="M 271.097656 139.550781 L 256.394531 140.585938 L 255.136719 132.230469 L 265.71875 128.714844 L 270.472656 130.253906 Z M 271.097656 139.550781 " fill-opacity="1" fill-rule="nonzero"/><path fill="#000000" d="M 256.320312 140.277344 C 256.226562 140.277344 256.144531 140.210938 256.132812 140.117188 L 255.984375 139.148438 C 255.96875 139.042969 256.042969 138.945312 256.144531 138.933594 C 256.25 138.914062 256.347656 138.988281 256.363281 139.09375 L 256.484375 139.890625 L 270.28125 139.265625 C 270.386719 139.246094 270.476562 139.34375 270.480469 139.449219 C 270.484375 139.554688 270.402344 139.644531 270.296875 139.648438 L 256.328125 140.277344 C 256.324219 140.277344 256.324219 140.277344 256.320312 140.277344 Z M 256.320312 140.277344 " fill-opacity="1" fill-rule="nonzero"/><path fill="#000000" d="M 270.472656 130.445312 C 270.472656 130.445312 270.46875 130.445312 270.464844 130.445312 L 267.511719 130.296875 C 267.40625 130.292969 267.328125 130.199219 267.332031 130.09375 C 267.335938 129.988281 267.421875 129.90625 267.53125 129.914062 L 270.484375 130.0625 C 270.589844 130.070312 270.671875 130.160156 270.664062 130.265625 C 270.660156 130.367188 270.574219 130.445312 270.472656 130.445312 Z M 270.472656 130.445312 " fill-opacity="1" fill-rule="nonzero"/><path fill="#ffad65" d="M 254.011719 128.421875 L 261.871094 126.3125 C 261.871094 126.3125 266.050781 124.503906 268.269531 126.753906 L 267.523438 130.105469 C 267.523438 130.105469 265.226562 129.640625 264.054688 130.347656 C 262.886719 131.058594 253.992188 134.789062 253.992188 134.890625 C 253.992188 134.992188 254.011719 128.421875 254.011719 128.421875 Z M 254.011719 128.421875 " fill-opacity="1" fill-rule="nonzero"/><path fill="#007785" d="M 241.507812 141.132812 L 255.785156 136.542969 L 255.808594 127.789062 L 239.714844 131.171875 Z M 241.507812 141.132812 " fill-opacity="1" fill-rule="nonzero"/><path fill="#000000" d="M 239.714844 131.363281 C 239.625 131.363281 239.546875 131.300781 239.527344 131.210938 C 239.507812 131.105469 239.574219 131.003906 239.675781 130.984375 L 255.773438 127.601562 C 255.878906 127.582031 255.976562 127.648438 255.996094 127.75 C 256.019531 127.851562 255.953125 127.953125 255.851562 127.976562 L 239.753906 131.359375 C 239.742188 131.359375 239.730469 131.363281 239.714844 131.363281 Z M 239.714844 131.363281 " fill-opacity="1" fill-rule="nonzero"/><path fill="#ffffff" d="M 266.351562 94.128906 C 266.03125 94.128906 265.714844 94.066406 265.410156 93.945312 C 264.777344 93.695312 264.277344 93.210938 264.007812 92.585938 C 263.617188 91.6875 263.769531 90.664062 264.402344 89.914062 C 264.460938 89.847656 264.5625 89.839844 264.628906 89.894531 C 264.695312 89.953125 264.703125 90.054688 264.648438 90.121094 C 264.09375 90.777344 263.960938 91.671875 264.300781 92.460938 C 264.539062 93.007812 264.972656 93.429688 265.527344 93.652344 C 266.082031 93.871094 266.6875 93.859375 267.234375 93.621094 C 267.78125 93.386719 268.203125 92.949219 268.425781 92.394531 C 268.644531 91.835938 268.632812 91.230469 268.394531 90.683594 C 268.359375 90.601562 268.398438 90.507812 268.480469 90.472656 C 268.558594 90.4375 268.65625 90.472656 268.6875 90.554688 C 268.960938 91.183594 268.972656 91.875 268.722656 92.511719 C 268.46875 93.148438 267.988281 93.644531 267.363281 93.917969 C 267.039062 94.054688 266.695312 94.128906 266.351562 94.128906 Z M 266.351562 94.128906 " fill-opacity="1" fill-rule="nonzero"/><g fill="#000000" fill-opacity="1"><g transform="translate(83.545417, 295.259249)"><g><path d="M 22.4375 -26.15625 L 15.140625 -26.15625 L 15.140625 -28.953125 C 15.140625 -29.242188 15.035156 -29.5 14.828125 -29.71875 C 14.628906 -29.9375 14.382812 -30.046875 14.09375 -30.046875 L 11.078125 -30.046875 C 10.785156 -30.046875 10.535156 -29.9375 10.328125 -29.71875 C 10.128906 -29.5 10.03125 -29.242188 10.03125 -28.953125 L 10.03125 -22.65625 C 10.03125 -22.363281 10.128906 -22.101562 10.328125 -21.875 C 10.535156 -21.65625 10.785156 -21.546875 11.078125 -21.546875 L 16.015625 -21.546875 C 20.546875 -21.472656 22.8125 -19.0625 22.8125 -14.3125 L 22.8125 -6.6875 C 22.8125 -1.863281 20.546875 0.546875 16.015625 0.546875 L 9.546875 0.546875 C 5.003906 0.546875 2.734375 -1.863281 2.734375 -6.6875 L 2.734375 -10.359375 L 10.03125 -10.359375 L 10.03125 -6.421875 C 10.03125 -6.128906 10.128906 -5.867188 10.328125 -5.640625 C 10.535156 -5.421875 10.785156 -5.3125 11.078125 -5.3125 L 14.484375 -5.3125 C 14.773438 -5.3125 15.019531 -5.421875 15.21875 -5.640625 C 15.414062 -5.867188 15.515625 -6.128906 15.515625 -6.421875 L 15.515625 -13.375 C 15.515625 -13.675781 15.414062 -13.9375 15.21875 -14.15625 C 15.019531 -14.375 14.773438 -14.484375 14.484375 -14.484375 L 9.546875 -14.484375 C 5.003906 -14.484375 2.734375 -16.894531 2.734375 -21.71875 L 2.734375 -28.796875 C 2.734375 -33.617188 5.003906 -36.03125 9.546875 -36.03125 L 15.625 -36.03125 C 20.164062 -36.03125 22.4375 -33.617188 22.4375 -28.796875 Z M 22.4375 -26.15625 "/></g></g></g><g fill="#000000" fill-opacity="1"><g transform="translate(108.663813, 295.259249)"><g><path d="M 10.421875 -6.359375 L 18.921875 -6.359375 L 18.921875 0 L 2.734375 0 L 2.734375 -35.484375 L 18.921875 -35.484375 L 18.921875 -29.234375 L 10.421875 -29.234375 L 10.421875 -20.890625 L 18.375 -20.890625 L 18.375 -14.859375 L 10.421875 -14.859375 Z M 10.421875 -6.359375 "/></g></g></g><g fill="#000000" fill-opacity="1"><g transform="translate(129.285035, 295.259249)"><g><path d="M 10.421875 -6.46875 L 18.8125 -6.46875 L 18.8125 0 L 2.734375 0 L 2.734375 -35.484375 L 10.421875 -35.484375 Z M 10.421875 -6.46875 "/></g></g></g><g fill="#000000" fill-opacity="1"><g transform="translate(148.973907, 295.259249)"><g><path d="M 10.421875 -6.46875 L 18.8125 -6.46875 L 18.8125 0 L 2.734375 0 L 2.734375 -35.484375 L 10.421875 -35.484375 Z M 10.421875 -6.46875 "/></g></g></g><g fill="#000000" fill-opacity="1"><g transform="translate(168.662779, 295.259249)"><g/></g></g><g fill="#000000" fill-opacity="1"><g transform="translate(179.741197, 295.259249)"><g><path d="M 5.09375 -17.109375 C 3.601562 -18.203125 2.859375 -20.175781 2.859375 -23.03125 L 2.859375 -26.65625 C 2.859375 -31.476562 5.125 -33.890625 9.65625 -33.890625 L 15.46875 -33.890625 C 20 -33.890625 22.265625 -31.476562 22.265625 -26.65625 L 22.265625 -25.125 L 15.40625 -25.125 L 15.40625 -26.8125 C 15.40625 -27.101562 15.304688 -27.359375 15.109375 -27.578125 C 14.910156 -27.804688 14.664062 -27.921875 14.375 -27.921875 L 10.6875 -27.921875 C 10.394531 -27.921875 10.148438 -27.804688 9.953125 -27.578125 C 9.753906 -27.359375 9.65625 -27.101562 9.65625 -26.8125 L 9.65625 -21 C 9.65625 -20.707031 9.753906 -20.453125 9.953125 -20.234375 C 10.148438 -20.015625 10.394531 -19.90625 10.6875 -19.90625 L 24.234375 -19.90625 L 24.234375 -13.984375 L 22.109375 -13.984375 L 22.109375 -6.6875 C 22.109375 -1.863281 19.835938 0.546875 15.296875 0.546875 L 9.328125 0.546875 C 4.785156 0.546875 2.515625 -1.863281 2.515625 -6.6875 L 2.515625 -10.90625 C 2.515625 -13.832031 3.375 -15.898438 5.09375 -17.109375 Z M 14.703125 -5.265625 C 14.992188 -5.265625 15.238281 -5.375 15.4375 -5.59375 C 15.632812 -5.8125 15.734375 -6.066406 15.734375 -6.359375 L 15.734375 -13.984375 L 10.359375 -13.984375 C 10.066406 -13.984375 9.820312 -13.875 9.625 -13.65625 C 9.425781 -13.4375 9.328125 -13.179688 9.328125 -12.890625 L 9.328125 -6.359375 C 9.328125 -6.066406 9.425781 -5.8125 9.625 -5.59375 C 9.820312 -5.375 10.066406 -5.265625 10.359375 -5.265625 Z M 14.703125 -5.265625 "/></g></g></g><g fill="#000000" fill-opacity="1"><g transform="translate(204.749912, 295.259249)"><g/></g></g><g fill="#000000" fill-opacity="1"><g transform="translate(215.82833, 295.259249)"><g><path d="M 20.078125 -19.421875 C 22.453125 -18.578125 23.640625 -16.632812 23.640625 -13.59375 L 23.640625 -7.234375 C 23.640625 -2.410156 21.375 0 16.84375 0 L 2.734375 0 L 2.734375 -35.484375 L 16.390625 -35.484375 C 20.929688 -35.484375 23.203125 -33.070312 23.203125 -28.25 L 23.203125 -25.015625 C 23.203125 -22.085938 22.160156 -20.222656 20.078125 -19.421875 Z M 14.484375 -30.28125 L 10.421875 -30.28125 L 10.421875 -20.78125 L 14.484375 -20.78125 C 14.773438 -20.78125 15.019531 -20.890625 15.21875 -21.109375 C 15.414062 -21.328125 15.515625 -21.582031 15.515625 -21.875 L 15.515625 -29.171875 C 15.515625 -29.460938 15.414062 -29.71875 15.21875 -29.9375 C 15.019531 -30.164062 14.773438 -30.28125 14.484375 -30.28125 Z M 15.953125 -6.359375 L 15.953125 -14.3125 C 15.953125 -14.601562 15.851562 -14.859375 15.65625 -15.078125 C 15.457031 -15.296875 15.210938 -15.40625 14.921875 -15.40625 L 10.421875 -15.40625 L 10.421875 -5.265625 L 14.921875 -5.265625 C 15.210938 -5.265625 15.457031 -5.375 15.65625 -5.59375 C 15.851562 -5.8125 15.953125 -6.066406 15.953125 -6.359375 Z M 15.953125 -6.359375 "/></g></g></g><g fill="#000000" fill-opacity="1"><g transform="translate(241.988755, 295.259249)"><g><path d="M 15.40625 -35.484375 L 23.09375 -35.484375 L 23.09375 -6.6875 C 23.09375 -1.863281 20.820312 0.546875 16.28125 0.546875 L 9.484375 0.546875 C 4.953125 0.546875 2.6875 -1.863281 2.6875 -6.6875 L 2.6875 -35.484375 L 10.359375 -35.484375 L 10.359375 -6.03125 C 10.359375 -5.738281 10.457031 -5.484375 10.65625 -5.265625 C 10.863281 -5.046875 11.113281 -4.9375 11.40625 -4.9375 L 14.375 -4.9375 C 14.664062 -4.9375 14.910156 -5.046875 15.109375 -5.265625 C 15.304688 -5.484375 15.40625 -5.738281 15.40625 -6.03125 Z M 15.40625 -35.484375 "/></g></g></g><g fill="#000000" fill-opacity="1"><g transform="translate(267.600745, 295.259249)"><g><path d="M 23.3125 -35.484375 L 15.6875 -12.9375 L 15.6875 0 L 8 0 L 8 -12.9375 L 0.390625 -35.484375 L 7.625 -35.484375 L 11.84375 -20.671875 L 16.0625 -35.484375 Z M 23.3125 -35.484375 "/></g></g></g><g fill="#ff914d" fill-opacity="1"><g transform="translate(94.994263, 324.5778)"><g><path d="M 6.390625 -2.328125 L 6.390625 -4.515625 L 9.3125 -4.515625 L 9.3125 -2.671875 C 9.3125 -0.742188 8.398438 0.21875 6.578125 0.21875 L 3.8125 0.21875 C 2 0.21875 1.09375 -0.742188 1.09375 -2.671875 L 1.09375 -11.53125 C 1.09375 -13.457031 2 -14.421875 3.8125 -14.421875 L 6.578125 -14.421875 C 8.398438 -14.421875 9.3125 -13.457031 9.3125 -11.53125 L 9.3125 -10.1875 L 6.390625 -10.1875 L 6.390625 -11.90625 C 6.390625 -12.019531 6.347656 -12.117188 6.265625 -12.203125 C 6.179688 -12.296875 6.082031 -12.34375 5.96875 -12.34375 L 4.59375 -12.34375 C 4.46875 -12.34375 4.363281 -12.296875 4.28125 -12.203125 C 4.207031 -12.117188 4.171875 -12.019531 4.171875 -11.90625 L 4.171875 -2.328125 C 4.171875 -2.210938 4.207031 -2.109375 4.28125 -2.015625 C 4.363281 -1.929688 4.46875 -1.890625 4.59375 -1.890625 L 5.96875 -1.890625 C 6.082031 -1.890625 6.179688 -1.929688 6.265625 -2.015625 C 6.347656 -2.109375 6.390625 -2.210938 6.390625 -2.328125 Z M 6.390625 -2.328125 "/></g></g></g><g fill="#ff914d" fill-opacity="1"><g transform="translate(108.626715, 324.5778)"><g><path d="M 9.46875 -11.53125 L 9.46875 -2.671875 C 9.46875 -0.742188 8.554688 0.21875 6.734375 0.21875 L 3.8125 0.21875 C 2 0.21875 1.09375 -0.742188 1.09375 -2.671875 L 1.09375 -11.53125 C 1.09375 -13.457031 2 -14.421875 3.8125 -14.421875 L 6.734375 -14.421875 C 8.554688 -14.421875 9.46875 -13.457031 9.46875 -11.53125 Z M 6.390625 -2.328125 L 6.390625 -11.90625 C 6.390625 -12.019531 6.347656 -12.117188 6.265625 -12.203125 C 6.179688 -12.296875 6.082031 -12.34375 5.96875 -12.34375 L 4.59375 -12.34375 C 4.46875 -12.34375 4.363281 -12.296875 4.28125 -12.203125 C 4.207031 -12.117188 4.171875 -12.019531 4.171875 -11.90625 L 4.171875 -2.328125 C 4.171875 -2.210938 4.207031 -2.109375 4.28125 -2.015625 C 4.363281 -1.929688 4.46875 -1.890625 4.59375 -1.890625 L 5.96875 -1.890625 C 6.082031 -1.890625 6.179688 -1.929688 6.265625 -2.015625 C 6.347656 -2.109375 6.390625 -2.210938 6.390625 -2.328125 Z M 6.390625 -2.328125 "/></g></g></g><g fill="#ff914d" fill-opacity="1"><g transform="translate(122.829839, 324.5778)"><g><path d="M 9.25 0 L 6.171875 0 L 6.171875 -11.78125 C 6.171875 -11.90625 6.128906 -12.007812 6.046875 -12.09375 C 5.960938 -12.1875 5.863281 -12.234375 5.75 -12.234375 L 4.5625 -12.234375 C 4.445312 -12.234375 4.347656 -12.1875 4.265625 -12.09375 C 4.191406 -12.007812 4.15625 -11.90625 4.15625 -11.78125 L 4.15625 0 L 1.078125 0 L 1.078125 -11.53125 C 1.078125 -13.457031 1.984375 -14.421875 3.796875 -14.421875 L 6.515625 -14.421875 C 8.335938 -14.421875 9.25 -13.457031 9.25 -11.53125 Z M 9.25 0 "/></g></g></g><g fill="#ff914d" fill-opacity="1"><g transform="translate(136.615929, 324.5778)"><g><path d="M 0.28125 -11.59375 L 0.28125 -14.203125 L 7.96875 -14.203125 L 7.96875 -11.59375 L 5.65625 -11.59375 L 5.65625 0 L 2.59375 0 L 2.59375 -11.59375 Z M 0.28125 -11.59375 "/></g></g></g><g fill="#ff914d" fill-opacity="1"><g transform="translate(148.470485, 324.5778)"><g><path d="M 6.734375 -14.421875 C 8.554688 -14.421875 9.46875 -13.457031 9.46875 -11.53125 L 9.46875 0 L 6.390625 0 L 6.390625 -4.765625 L 4.171875 -4.765625 L 4.171875 0 L 1.09375 0 L 1.09375 -11.53125 C 1.09375 -13.457031 2 -14.421875 3.8125 -14.421875 Z M 4.171875 -7.140625 L 6.390625 -7.140625 L 6.390625 -11.90625 C 6.390625 -12.019531 6.347656 -12.117188 6.265625 -12.203125 C 6.179688 -12.296875 6.082031 -12.34375 5.96875 -12.34375 L 4.59375 -12.34375 C 4.46875 -12.34375 4.363281 -12.296875 4.28125 -12.203125 C 4.207031 -12.117188 4.171875 -12.019531 4.171875 -11.90625 Z M 4.171875 -7.140625 "/></g></g></g><g fill="#ff914d" fill-opacity="1"><g transform="translate(162.695559, 324.5778)"><g><path d="M 6.390625 -2.328125 L 6.390625 -4.515625 L 9.3125 -4.515625 L 9.3125 -2.671875 C 9.3125 -0.742188 8.398438 0.21875 6.578125 0.21875 L 3.8125 0.21875 C 2 0.21875 1.09375 -0.742188 1.09375 -2.671875 L 1.09375 -11.53125 C 1.09375 -13.457031 2 -14.421875 3.8125 -14.421875 L 6.578125 -14.421875 C 8.398438 -14.421875 9.3125 -13.457031 9.3125 -11.53125 L 9.3125 -10.1875 L 6.390625 -10.1875 L 6.390625 -11.90625 C 6.390625 -12.019531 6.347656 -12.117188 6.265625 -12.203125 C 6.179688 -12.296875 6.082031 -12.34375 5.96875 -12.34375 L 4.59375 -12.34375 C 4.46875 -12.34375 4.363281 -12.296875 4.28125 -12.203125 C 4.207031 -12.117188 4.171875 -12.019531 4.171875 -11.90625 L 4.171875 -2.328125 C 4.171875 -2.210938 4.207031 -2.109375 4.28125 -2.015625 C 4.363281 -1.929688 4.46875 -1.890625 4.59375 -1.890625 L 5.96875 -1.890625 C 6.082031 -1.890625 6.179688 -1.929688 6.265625 -2.015625 C 6.347656 -2.109375 6.390625 -2.210938 6.390625 -2.328125 Z M 6.390625 -2.328125 "/></g></g></g><g fill="#ff914d" fill-opacity="1"><g transform="translate(176.328012, 324.5778)"><g><path d="M 0.28125 -11.59375 L 0.28125 -14.203125 L 7.96875 -14.203125 L 7.96875 -11.59375 L 5.65625 -11.59375 L 5.65625 0 L 2.59375 0 L 2.59375 -11.59375 Z M 0.28125 -11.59375 "/></g></g></g><g fill="#ff914d" fill-opacity="1"><g transform="translate(188.182568, 324.5778)"><g/></g></g><g fill="#ff914d" fill-opacity="1"><g transform="translate(196.196018, 324.5778)"><g><path d="M 8.984375 -10.46875 L 6.0625 -10.46875 L 6.0625 -11.59375 C 6.0625 -11.707031 6.019531 -11.804688 5.9375 -11.890625 C 5.851562 -11.984375 5.753906 -12.03125 5.640625 -12.03125 L 4.4375 -12.03125 C 4.320312 -12.03125 4.222656 -11.984375 4.140625 -11.890625 C 4.054688 -11.804688 4.015625 -11.707031 4.015625 -11.59375 L 4.015625 -9.0625 C 4.015625 -8.945312 4.054688 -8.84375 4.140625 -8.75 C 4.222656 -8.664062 4.320312 -8.625 4.4375 -8.625 L 6.40625 -8.625 C 8.21875 -8.59375 9.125 -7.628906 9.125 -5.734375 L 9.125 -2.671875 C 9.125 -0.742188 8.21875 0.21875 6.40625 0.21875 L 3.8125 0.21875 C 2 0.21875 1.09375 -0.742188 1.09375 -2.671875 L 1.09375 -4.15625 L 4.015625 -4.15625 L 4.015625 -2.5625 C 4.015625 -2.445312 4.054688 -2.34375 4.140625 -2.25 C 4.222656 -2.164062 4.320312 -2.125 4.4375 -2.125 L 5.796875 -2.125 C 5.910156 -2.125 6.007812 -2.164062 6.09375 -2.25 C 6.175781 -2.34375 6.21875 -2.445312 6.21875 -2.5625 L 6.21875 -5.359375 C 6.21875 -5.472656 6.175781 -5.570312 6.09375 -5.65625 C 6.007812 -5.75 5.910156 -5.796875 5.796875 -5.796875 L 3.8125 -5.796875 C 2 -5.796875 1.09375 -6.757812 1.09375 -8.6875 L 1.09375 -11.53125 C 1.09375 -13.457031 2 -14.421875 3.8125 -14.421875 L 6.25 -14.421875 C 8.070312 -14.421875 8.984375 -13.457031 8.984375 -11.53125 Z M 8.984375 -10.46875 "/></g></g></g><g fill="#ff914d" fill-opacity="1"><g transform="translate(209.828471, 324.5778)"><g><path d="M 4.171875 -2.546875 L 7.578125 -2.546875 L 7.578125 0 L 1.09375 0 L 1.09375 -14.203125 L 7.578125 -14.203125 L 7.578125 -11.703125 L 4.171875 -11.703125 L 4.171875 -8.359375 L 7.359375 -8.359375 L 7.359375 -5.953125 L 4.171875 -5.953125 Z M 4.171875 -2.546875 "/></g></g></g><g fill="#ff914d" fill-opacity="1"><g transform="translate(221.661077, 324.5778)"><g><path d="M 4.171875 -5.8125 L 4.171875 0 L 1.09375 0 L 1.09375 -14.203125 L 6.5625 -14.203125 C 8.375 -14.203125 9.28125 -13.238281 9.28125 -11.3125 L 9.28125 -9.65625 C 9.28125 -8.488281 8.863281 -7.742188 8.03125 -7.421875 C 8.757812 -7.160156 9.125 -6.5625 9.125 -5.625 L 9.125 0 L 6.0625 0 L 6.0625 -5.375 C 6.0625 -5.664062 5.921875 -5.8125 5.640625 -5.8125 Z M 4.171875 -12.125 L 4.171875 -7.96875 L 5.796875 -7.96875 C 5.910156 -7.96875 6.007812 -8.007812 6.09375 -8.09375 C 6.175781 -8.1875 6.21875 -8.289062 6.21875 -8.40625 L 6.21875 -11.671875 C 6.21875 -11.796875 6.175781 -11.898438 6.09375 -11.984375 C 6.007812 -12.078125 5.910156 -12.125 5.796875 -12.125 Z M 4.171875 -12.125 "/></g></g></g><g fill="#ff914d" fill-opacity="1"><g transform="translate(235.403268, 324.5778)"><g><path d="M 6.828125 -14.203125 L 9.796875 -14.203125 L 6.84375 0 L 3.3125 0 L 0.375 -14.203125 L 3.359375 -14.203125 L 5.09375 -3.84375 Z M 6.828125 -14.203125 "/></g></g></g><g fill="#ff914d" fill-opacity="1"><g transform="translate(249.189358, 324.5778)"><g><path d="M 4.171875 -14.203125 L 4.171875 0 L 1.09375 0 L 1.09375 -14.203125 Z M 4.171875 -14.203125 "/></g></g></g><g fill="#ff914d" fill-opacity="1"><g transform="translate(258.124675, 324.5778)"><g><path d="M 6.390625 -2.328125 L 6.390625 -4.515625 L 9.3125 -4.515625 L 9.3125 -2.671875 C 9.3125 -0.742188 8.398438 0.21875 6.578125 0.21875 L 3.8125 0.21875 C 2 0.21875 1.09375 -0.742188 1.09375 -2.671875 L 1.09375 -11.53125 C 1.09375 -13.457031 2 -14.421875 3.8125 -14.421875 L 6.578125 -14.421875 C 8.398438 -14.421875 9.3125 -13.457031 9.3125 -11.53125 L 9.3125 -10.1875 L 6.390625 -10.1875 L 6.390625 -11.90625 C 6.390625 -12.019531 6.347656 -12.117188 6.265625 -12.203125 C 6.179688 -12.296875 6.082031 -12.34375 5.96875 -12.34375 L 4.59375 -12.34375 C 4.46875 -12.34375 4.363281 -12.296875 4.28125 -12.203125 C 4.207031 -12.117188 4.171875 -12.019531 4.171875 -11.90625 L 4.171875 -2.328125 C 4.171875 -2.210938 4.207031 -2.109375 4.28125 -2.015625 C 4.363281 -1.929688 4.46875 -1.890625 4.59375 -1.890625 L 5.96875 -1.890625 C 6.082031 -1.890625 6.179688 -1.929688 6.265625 -2.015625 C 6.347656 -2.109375 6.390625 -2.210938 6.390625 -2.328125 Z M 6.390625 -2.328125 "/></g></g></g><g fill="#ff914d" fill-opacity="1"><g transform="translate(271.757128, 324.5778)"><g><path d="M 4.171875 -2.546875 L 7.578125 -2.546875 L 7.578125 0 L 1.09375 0 L 1.09375 -14.203125 L 7.578125 -14.203125 L 7.578125 -11.703125 L 4.171875 -11.703125 L 4.171875 -8.359375 L 7.359375 -8.359375 L 7.359375 -5.953125 L 4.171875 -5.953125 Z M 4.171875 -2.546875 "/></g></g></g></svg>