<svg xmlns="http://www.w3.org/2000/svg" xmlns:xlink="http://www.w3.org/1999/xlink" width="500" zoomAndPan="magnify" viewBox="0 0 375 374.999991" height="500" preserveAspectRatio="xMidYMid meet" version="1.0"><defs><clipPath id="fabfd8774e"><path d="M 112.5 146.648438 L 262.5 146.648438 L 262.5 228.339844 L 112.5 228.339844 Z M 112.5 146.648438 " clip-rule="nonzero"/></clipPath></defs><g clip-path="url(#fabfd8774e)"><path fill="#000000" d="M 260.5 148.640625 C 259.265625 147.40625 257.5625 146.636719 255.671875 146.636719 C 253.785156 146.636719 252.082031 147.398438 250.847656 148.640625 L 187.5 211.953125 L 124.152344 148.640625 C 122.917969 147.40625 121.207031 146.644531 119.324219 146.644531 C 115.554688 146.644531 112.503906 149.695312 112.503906 153.460938 C 112.503906 155.34375 113.265625 157.050781 114.5 158.285156 L 182.671875 226.410156 C 183.90625 227.644531 185.613281 228.414062 187.5 228.414062 C 189.386719 228.414062 191.09375 227.648438 192.328125 226.410156 L 260.5 158.285156 C 261.734375 157.050781 262.503906 155.347656 262.503906 153.460938 C 262.503906 151.574219 261.742188 149.871094 260.5 148.640625 Z M 260.5 148.640625 " fill-opacity="1" fill-rule="nonzero"/></g></svg>