<svg version="1.1" id="Layer_1" xmlns="http://www.w3.org/2000/svg" xmlns:xlink="http://www.w3.org/1999/xlink" x="0px" y="0px"
	 width="100%" viewBox="0 0 512 512" enable-background="new 0 0 512 512" xml:space="preserve">
<path opacity="0.000000" stroke="none" 
	d="
M1.000000,150.000000 
	C1.000000,100.360146 1.000000,50.720291 1.000000,1.040218 
	C171.547714,1.040218 342.095459,1.040218 513.000000,1.040218 
	C513.000000,50.353653 513.000000,99.708168 512.653320,149.757263 
	C511.943512,150.117172 511.377380,149.847565 511.246216,149.438492 
	C505.029449,130.047318 491.701904,118.529137 471.942413,114.595192 
	C467.737762,113.758080 462.922943,113.804184 458.868622,115.029541 
	C455.091614,116.171082 454.104980,120.369911 455.205902,124.268623 
	C456.500458,128.853058 460.292877,129.984161 464.477417,129.972839 
	C474.189575,129.946564 482.221680,134.244431 488.318634,141.078827 
	C497.976349,151.904709 500.088531,164.808685 494.217621,178.175278 
	C488.394989,191.431808 477.368347,198.607895 463.160126,198.791626 
	C445.308777,199.022430 430.010376,185.978287 427.998199,164.291702 
	C427.469116,158.589386 423.814240,155.228317 419.117096,156.060638 
	C414.703918,156.842682 411.151917,162.431824 412.115448,167.105286 
	C412.378510,168.381119 412.839508,169.629700 412.977295,170.915710 
	C414.641113,186.442352 422.492279,198.295547 435.367554,206.531799 
	C441.264709,210.304184 448.195496,212.460709 454.913544,215.464508 
	C454.913544,251.593369 454.913544,288.245789 454.590942,325.044128 
	C445.338287,329.661591 440.200012,336.737366 441.126160,346.865845 
	C441.876404,355.070099 445.655151,361.824707 453.929840,365.473511 
	C449.949280,373.661346 445.994110,381.516724 441.916077,389.307800 
	C435.352356,401.847778 428.707520,414.345276 421.902161,426.505493 
	C421.144043,422.982819 420.745026,419.775604 419.989197,416.654816 
	C416.582031,402.586517 408.549591,392.331299 395.372345,385.891632 
	C385.216431,380.928467 374.599792,381.979706 363.503876,382.133636 
	C346.735626,382.020599 330.430054,381.971466 314.074097,381.461182 
	C314.071838,362.683655 314.119965,344.367249 314.503693,326.025146 
	C315.508820,325.954376 316.178406,325.909241 317.321533,325.920715 
	C322.870911,325.924835 327.946686,325.872375 333.485962,325.889526 
	C341.970978,325.909088 349.992432,325.858978 358.284210,325.889343 
	C358.926239,325.933899 359.298004,325.898041 360.151733,325.929932 
	C363.616730,326.005371 366.599701,326.018250 369.582672,326.019806 
	C383.621399,326.027222 399.533356,311.510925 399.360962,296.980896 
	C399.724792,296.249908 399.791992,295.639984 399.933899,294.564789 
	C400.014404,267.332245 400.043610,240.564957 400.018921,213.797714 
	C399.997742,190.858307 399.914825,167.918945 399.920288,144.663879 
	C399.666229,143.863663 399.351135,143.379150 399.022888,142.481125 
	C397.745636,137.944351 397.194305,133.404282 395.075531,129.780762 
	C389.980591,121.067360 382.002838,115.923698 372.059387,113.467804 
	C369.954254,96.727730 361.103058,86.257065 345.066772,81.500053 
	C345.012360,68.900230 345.030945,56.764526 344.987183,44.629051 
	C344.970428,39.983589 341.869415,36.956676 337.348511,37.000309 
	C331.880157,37.053085 329.083984,40.016193 329.027405,46.244534 
	C328.930756,56.883129 328.918396,67.524307 329.057312,78.161957 
	C329.092651,80.867668 328.369324,82.212471 325.621277,83.065323 
	C312.752594,87.059097 302.608826,100.199249 302.439880,113.972519 
	C299.662933,114.040100 297.323334,114.099190 294.520142,114.092819 
	C267.078308,113.995285 240.100006,113.963203 213.078110,113.527466 
	C210.575653,97.113251 202.225876,86.190491 186.071136,81.500053 
	C186.012848,69.233452 186.011261,57.430683 185.997589,45.627934 
	C185.991074,40.011700 183.276093,36.955986 178.363663,37.000355 
	C173.002899,37.048775 170.026306,40.086891 170.008926,45.667797 
	C169.975830,56.306843 169.917465,66.947090 170.051331,77.584557 
	C170.088882,80.567657 169.438324,82.105003 166.211487,83.150391 
	C153.251953,87.348839 143.398224,100.680168 143.507599,113.960274 
	C141.538788,114.332542 139.954758,114.614182 138.404114,115.022591 
	C125.450333,118.434326 115.189621,130.631790 115.116875,143.588531 
	C114.830734,194.553253 114.845268,245.521423 115.140877,296.486023 
	C115.194519,305.733459 119.946770,313.176941 127.361343,319.188416 
	C135.753189,325.992218 145.224304,326.483734 155.621597,325.904724 
	C164.006577,325.936493 171.942108,325.899078 180.350006,325.919983 
	C185.969635,325.938782 191.116898,325.899261 196.643280,325.905945 
	C198.305237,325.987732 199.588104,326.023315 200.926834,326.520874 
	C200.947845,345.302124 200.912994,363.621399 200.417786,381.966919 
	C179.028442,381.995209 158.091278,382.359558 137.172943,381.888184 
	C119.464157,381.489105 100.933220,394.212463 95.676102,411.822876 
	C94.177132,416.844116 93.251221,422.036499 91.739014,426.984253 
	C86.069107,416.484039 80.662262,406.180603 75.393471,395.807098 
	C70.217911,385.617126 65.182594,375.355927 60.443604,365.073059 
	C68.686401,361.199951 72.348824,354.385284 72.884956,346.145203 
	C73.549179,335.936371 68.054138,329.148407 59.051437,324.437134 
	C59.016838,287.519012 59.016838,251.062012 59.016838,214.293304 
	C70.455406,212.587067 80.012726,207.324127 87.782898,199.356552 
	C96.525177,190.392166 100.576836,179.069290 101.979721,166.718597 
	C102.512772,162.025757 98.897583,156.674591 94.470161,156.028503 
	C89.857285,155.355362 86.543922,158.781754 85.954414,164.504517 
	C85.654648,167.414474 85.164604,170.351807 84.340256,173.153061 
	C79.419754,189.873383 62.533802,202.559631 43.629684,197.880905 
	C23.523560,192.904678 12.535764,174.206543 18.169796,154.241623 
	C22.110231,140.278214 34.488201,130.195267 50.371078,129.951355 
	C51.961327,129.926956 54.296593,129.792847 54.979015,128.805893 
	C56.713112,126.297920 58.793159,123.221443 58.653164,120.478806 
	C58.539452,118.251152 55.766251,114.997787 53.526489,114.313354 
	C50.197727,113.296143 46.177048,113.560959 42.663033,114.295372 
	C23.280983,118.346153 9.584983,129.222656 2.962573,148.300583 
	C2.716733,149.008804 1.672283,149.439804 1.000000,150.000000 
M252.999878,27.499886 
	C248.525909,31.970621 244.056015,36.445446 239.576553,40.910664 
	C236.529373,43.948162 236.312729,47.449856 237.744507,51.295368 
	C239.139618,55.042416 242.278595,55.010101 245.446136,55.001652 
	C248.498306,54.993511 251.550507,54.999889 255.686737,54.999889 
	C249.590347,61.016895 244.319244,66.061234 239.239700,71.291580 
	C236.152847,74.470070 236.141220,80.810326 238.927750,83.380417 
	C242.007278,86.220741 247.665009,85.843903 250.989777,82.523766 
	C260.765991,72.761124 270.579926,63.035263 280.264587,53.182419 
	C285.081482,48.281864 283.538940,41.834415 277.010956,40.055542 
	C273.329193,39.052238 269.385986,39.008217 265.541534,38.529705 
	C265.518463,38.433128 265.402588,38.206253 265.459290,38.148392 
	C268.370209,35.177311 271.289764,32.214592 274.221405,29.263903 
	C277.830597,25.631294 278.202209,20.906843 275.121796,17.630814 
	C271.691650,13.982863 266.905487,13.843323 263.039886,17.476822 
	C259.767395,20.552790 256.673065,23.818266 252.999878,27.499886 
z"/>
<path fill="#678D98" opacity="1.000000" stroke="none" 
	d="
M42.913101,324.897217 
	C42.913101,288.175110 42.913101,251.453003 42.913101,214.357407 
	C28.466179,211.770660 17.110680,204.261124 8.928313,192.271179 
	C6.026255,188.018692 4.063718,183.125015 1.336137,178.762024 
	C1.000000,169.645767 1.000000,160.291550 1.000000,150.468658 
	C1.672283,149.439804 2.716733,149.008804 2.962573,148.300583 
	C9.584983,129.222656 23.280983,118.346153 42.663033,114.295372 
	C46.177048,113.560959 50.197727,113.296143 53.526489,114.313354 
	C55.766251,114.997787 58.539452,118.251152 58.653164,120.478806 
	C58.793159,123.221443 56.713112,126.297920 54.979015,128.805893 
	C54.296593,129.792847 51.961327,129.926956 50.371078,129.951355 
	C34.488201,130.195267 22.110231,140.278214 18.169796,154.241623 
	C12.535764,174.206543 23.523560,192.904678 43.629684,197.880905 
	C62.533802,202.559631 79.419754,189.873383 84.340256,173.153061 
	C85.164604,170.351807 85.654648,167.414474 85.954414,164.504517 
	C86.543922,158.781754 89.857285,155.355362 94.470161,156.028503 
	C98.897583,156.674591 102.512772,162.025757 101.979721,166.718597 
	C100.576836,179.069290 96.525177,190.392166 87.782898,199.356552 
	C80.012726,207.324127 70.455406,212.587067 59.016838,214.293304 
	C59.016838,251.062012 59.016838,287.519012 58.631180,324.491455 
	C53.134716,324.970337 48.023911,324.933777 42.913101,324.897217 
z"/>
<path fill="#678D98" opacity="1.000000" stroke="none" 
	d="
M513.000000,178.531342 
	C512.351196,179.385376 511.315369,179.626205 511.109619,180.177063 
	C504.115479,198.903946 490.776611,210.245499 471.017426,214.462921 
	C471.017426,251.030502 471.017426,287.502502 470.632019,324.493469 
	C465.135559,324.974365 460.024567,324.936279 454.913544,324.898193 
	C454.913544,288.245789 454.913544,251.593369 454.913544,215.464508 
	C448.195496,212.460709 441.264709,210.304184 435.367554,206.531799 
	C422.492279,198.295547 414.641113,186.442352 412.977295,170.915710 
	C412.839508,169.629700 412.378510,168.381119 412.115448,167.105286 
	C411.151917,162.431824 414.703918,156.842682 419.117096,156.060638 
	C423.814240,155.228317 427.469116,158.589386 427.998199,164.291702 
	C430.010376,185.978287 445.308777,199.022430 463.160126,198.791626 
	C477.368347,198.607895 488.394989,191.431808 494.217621,178.175278 
	C500.088531,164.808685 497.976349,151.904709 488.318634,141.078827 
	C482.221680,134.244431 474.189575,129.946564 464.477417,129.972839 
	C460.292877,129.984161 456.500458,128.853058 455.205902,124.268623 
	C454.104980,120.369911 455.091614,116.171082 458.868622,115.029541 
	C462.922943,113.804184 467.737762,113.758080 471.942413,114.595192 
	C491.701904,118.529137 505.029449,130.047318 511.246216,149.438492 
	C511.377380,149.847565 511.943512,150.117172 512.653320,150.225922 
	C513.000000,159.354233 513.000000,168.708450 513.000000,178.531342 
z"/>
<path fill="#A8D3D8" opacity="1.000000" stroke="none" 
	d="
M155.172165,325.835510 
	C145.224304,326.483734 135.753189,325.992218 127.361343,319.188416 
	C119.946770,313.176941 115.194519,305.733459 115.140877,296.486023 
	C114.845268,245.521423 114.830734,194.553253 115.116875,143.588531 
	C115.189621,130.631790 125.450333,118.434326 138.404114,115.022591 
	C139.954758,114.614182 141.538788,114.332542 143.977264,114.031708 
	C161.559158,114.063545 178.271133,114.055817 195.166992,114.102875 
	C195.350891,114.157661 195.730927,114.210999 195.756332,114.637390 
	C196.501633,130.406921 206.690384,142.900528 221.002014,143.747437 
	C238.015259,144.754227 255.116699,144.270340 272.606140,144.531494 
	C278.512939,144.497620 283.994293,144.391220 289.473907,144.226746 
	C305.951782,143.732147 318.151184,131.604584 319.196228,114.808914 
	C330.328613,114.461861 341.114044,114.357277 352.035095,114.564728 
	C353.162964,115.431267 354.106995,116.107803 355.154755,116.521667 
	C367.565002,121.423744 375.897461,132.842484 375.931152,146.124237 
	C376.056091,195.402145 376.150818,244.681595 375.855164,293.958038 
	C375.785248,305.611450 370.386475,315.030060 359.796204,320.693634 
	C358.067566,309.967224 355.203003,300.127686 348.022888,291.665466 
	C344.295746,287.912994 340.715820,284.467926 336.959045,280.725525 
	C329.032623,274.732727 320.489166,271.053650 310.422241,270.142822 
	C304.684204,269.809875 299.353210,269.544434 293.557373,269.266174 
	C283.719299,269.487213 274.346100,269.721069 264.508148,269.932556 
	C258.817535,269.928284 253.591660,269.946350 247.871216,269.910522 
	C237.959671,269.896698 228.542725,269.936798 218.652649,269.946838 
	C212.894669,270.232513 207.609818,270.548248 201.882568,270.819336 
	C191.264069,272.178925 182.271240,276.060150 174.617096,283.574585 
	C171.093521,287.438080 167.898666,291.158600 164.454620,295.096130 
	C157.759521,304.470673 154.834778,314.670380 155.172165,325.835510 
M304.335785,201.041626 
	C305.749176,202.456161 307.162689,203.870575 308.575928,205.285233 
	C313.912354,210.627060 313.912354,210.627106 308.563995,215.978455 
	C298.308777,226.239471 298.344940,227.414062 309.230835,237.625000 
	C313.612579,241.735062 316.589813,241.787918 320.876984,237.673111 
	C324.192383,234.490982 327.402679,231.199356 330.467743,228.147568 
	C331.459747,228.618774 331.820068,228.693756 332.042725,228.910263 
	C334.789612,231.581223 337.514496,234.274811 340.248871,236.958649 
	C345.346161,241.961685 347.635406,241.954910 352.761353,236.927872 
	C363.385315,226.508911 363.389923,226.096268 352.997101,215.687180 
	C347.955933,210.638123 347.955933,210.638153 352.913544,205.670395 
	C363.463104,195.099243 363.449890,194.348389 352.534851,184.108383 
	C348.058411,179.908783 344.767456,179.774582 340.481537,184.166641 
	C337.486664,187.235641 334.942169,190.744141 332.196533,194.056335 
	C331.330963,194.044144 330.465393,194.031952 329.599823,194.019760 
	C326.735382,190.584641 324.089203,186.933029 320.951172,183.769272 
	C317.046600,179.832718 313.600586,179.995346 309.664429,183.747513 
	C307.735107,185.586655 305.858490,187.483292 304.005585,189.399887 
	C299.929352,193.616165 299.905365,195.856827 304.335785,201.041626 
M207.084106,233.497803 
	C212.767639,227.674759 212.825104,225.066391 206.961884,219.381149 
	C204.238037,216.739960 201.165085,214.458801 196.759491,210.764145 
	C201.643036,206.646759 205.402832,203.879807 208.665894,200.616226 
	C212.165604,197.115982 212.011887,193.230072 208.747818,189.490402 
	C207.327164,187.862747 205.736633,186.380676 204.191559,184.864792 
	C198.739609,179.515823 195.888535,179.558197 190.363632,185.045868 
	C189.063980,186.336746 187.771729,187.635071 186.475281,188.929169 
	C181.520157,193.875290 181.520050,193.875153 176.514145,188.866547 
	C165.824417,178.171036 165.824402,178.171051 155.139053,189.154602 
	C150.714676,193.702484 150.702057,196.896667 155.194275,201.554886 
	C158.149475,204.619293 161.187881,207.603470 165.443512,211.885941 
	C163.128769,213.415863 161.212158,214.285797 159.807724,215.673935 
	C148.938995,226.416382 148.977005,227.088425 160.021683,237.538376 
	C164.368530,241.651138 167.735199,241.698685 172.046692,237.315872 
	C175.066177,234.246460 177.764893,230.861496 181.374649,226.741043 
	C183.991028,229.796875 185.597488,231.926682 187.458649,233.803970 
	C196.516708,242.940536 197.649734,242.927597 207.084106,233.497803 
z"/>
<path fill="#A8D3D8" opacity="1.000000" stroke="none" 
	d="
M84.921066,482.906738 
	C86.014709,473.567566 87.108353,464.228424 88.479034,454.216919 
	C89.858215,444.746490 90.960373,435.948425 92.062531,427.150391 
	C93.251221,422.036499 94.177132,416.844116 95.676102,411.822876 
	C100.933220,394.212463 119.464157,381.489105 137.172943,381.888184 
	C158.091278,382.359558 179.028442,381.995209 200.893921,381.981567 
	C231.238968,381.956329 260.647522,381.942657 290.518982,381.953308 
	C298.696075,381.959198 306.410278,381.940765 314.124481,381.922302 
	C330.430054,381.971466 346.735626,382.020599 363.621643,382.454468 
	C365.337952,383.459869 366.415466,384.241882 367.618469,384.676788 
	C384.202911,390.672516 394.432190,402.220734 397.095367,419.689911 
	C400.336731,440.951843 402.991669,462.303162 405.442749,483.686646 
	C387.049561,483.779266 369.113861,483.801025 351.127441,483.374573 
	C351.048767,470.151489 351.072266,457.376190 350.978912,444.601715 
	C350.878784,430.900177 340.543335,420.278381 326.900604,419.922302 
	C320.934204,419.766602 314.958801,419.954773 308.521301,419.940521 
	C269.567657,419.911041 231.080109,419.896698 192.592697,419.959900 
	C177.242905,419.985107 167.053818,430.324036 166.966232,445.756531 
	C166.894379,458.415955 166.827530,471.075409 166.306000,483.757141 
	C140.459656,483.799591 115.065765,483.836517 89.671974,483.799805 
	C88.087906,483.797516 86.504677,483.217804 84.921066,482.906738 
z"/>
<path fill="#847AC0" opacity="1.000000" stroke="none" 
	d="
M202.324951,270.863983 
	C207.609818,270.548248 212.894669,270.232513 218.789658,270.274353 
	C224.039734,281.820068 228.679703,293.008240 233.319656,304.196411 
	C233.770462,304.137909 234.221268,304.079407 234.672073,304.020905 
	C239.236633,292.668732 243.801208,281.316559 248.365784,269.964386 
	C253.591660,269.946350 258.817535,269.928284 264.601868,270.291565 
	C269.548065,281.725891 273.935760,292.778809 278.833496,305.116577 
	C283.973358,293.215790 288.558411,282.599579 293.513306,272.005219 
	C301.039429,275.621765 308.195679,279.216492 315.291656,282.872803 
	C315.231354,282.934418 315.112366,282.809601 315.197632,283.030365 
	C315.428894,283.538940 315.636658,283.771606 316.092712,284.187012 
	C316.579285,284.949371 316.879333,285.473785 317.203064,286.247681 
	C317.467896,286.705841 317.709076,286.914490 317.942139,287.073792 
	C317.934052,287.024445 317.836304,287.045593 317.860107,287.425568 
	C320.257996,293.669098 322.632111,299.532623 325.282562,306.078705 
	C326.526001,303.825928 327.310486,302.404694 328.334534,301.233246 
	C330.610809,308.625824 332.647461,315.768646 334.629486,323.179932 
	C334.369019,323.954529 334.163208,324.460632 333.745850,325.039307 
	C333.261200,325.273834 333.090576,325.509827 333.022461,325.819885 
	C327.946686,325.872375 322.870911,325.924835 317.311707,325.559570 
	C312.080933,313.546021 307.333618,301.950165 302.081238,289.120636 
	C300.626007,292.466187 299.784515,294.409912 298.935791,296.350433 
	C294.740662,305.941956 290.543671,315.532623 285.925598,325.222839 
	C280.372131,325.200714 275.240387,325.079346 270.052673,324.584900 
	C265.688934,313.086334 261.381165,301.960815 256.750397,290.001068 
	C251.475128,302.412933 246.683868,313.686005 241.525940,325.145996 
	C235.809189,325.207886 230.459122,325.082825 225.056335,324.584503 
	C220.594879,313.229767 216.186127,302.248291 211.777390,291.266846 
	C209.015930,295.205750 207.523361,299.164398 205.897476,303.067474 
	C202.725800,310.681305 199.479523,318.264069 196.264160,325.859741 
	C191.116898,325.899261 185.969635,325.938782 180.367157,325.562805 
	C174.842590,315.057953 169.773224,304.968536 164.703827,294.879150 
	C167.898666,291.158600 171.093521,287.438080 174.898590,283.842621 
	C179.549759,291.457153 183.590668,298.946625 188.144836,307.387360 
	C193.142090,294.516052 197.733521,282.690002 202.324951,270.863983 
z"/>
<path fill="#8EBAC5" opacity="1.000000" stroke="none" 
	d="
M359.960266,321.055084 
	C370.386475,315.030060 375.785248,305.611450 375.855164,293.958038 
	C376.150818,244.681595 376.056091,195.402145 375.931152,146.124237 
	C375.897461,132.842484 367.565002,121.423744 355.154755,116.521667 
	C354.106995,116.107803 353.162964,115.431267 352.319244,114.463364 
	C352.661804,113.999947 352.855896,113.949913 353.512695,113.937485 
	C360.012299,113.941597 366.049194,113.908112 372.086090,113.874634 
	C382.002838,115.923698 389.980591,121.067360 395.075531,129.780762 
	C397.194305,133.404282 397.745636,137.944351 399.047180,142.769470 
	C399.342834,143.974060 399.601013,144.476822 399.859192,144.979568 
	C399.914825,167.918945 399.997742,190.858307 400.018921,213.797714 
	C400.043610,240.564957 400.014404,267.332245 399.744293,294.779846 
	C399.341400,296.007446 399.202850,296.554718 399.064270,297.101990 
	C399.533356,311.510925 383.621399,326.027222 369.582672,326.019806 
	C366.599701,326.018250 363.616730,326.005371 360.201843,325.529968 
	C359.833405,323.726501 359.896851,322.390808 359.960266,321.055084 
z"/>
<path fill="#8EBAC5" opacity="1.000000" stroke="none" 
	d="
M270.108612,324.957947 
	C275.240387,325.079346 280.372131,325.200714 286.158203,325.439026 
	C287.893555,325.699829 288.974609,325.843719 290.041534,326.456848 
	C290.036987,345.260376 290.046539,363.594696 290.056091,381.928986 
	C260.647522,381.942657 231.238968,381.956329 201.354263,381.955322 
	C200.912994,363.621399 200.947845,345.302124 201.399506,326.450623 
	C203.610794,325.880096 205.406845,325.876801 207.199478,325.797211 
	C213.169998,325.532166 219.139297,325.239746 225.109055,324.957794 
	C230.459122,325.082825 235.809189,325.207886 241.861725,325.401459 
	C251.745682,325.299316 260.927155,325.128632 270.108612,324.957947 
z"/>
<path fill="#8379C1" opacity="1.000000" stroke="none" 
	d="
M272.179932,144.432404 
	C255.116699,144.270340 238.015259,144.754227 221.002014,143.747437 
	C206.690384,142.900528 196.501633,130.406921 196.245712,114.571030 
	C202.180359,114.029228 207.651047,113.980179 213.121719,113.931129 
	C240.100006,113.963203 267.078308,113.995285 294.522949,114.500275 
	C293.645111,128.308197 287.409607,138.008835 274.437408,142.764343 
	C273.594360,143.073395 272.928314,143.865173 272.179932,144.432404 
z"/>
<path fill="#8EBAC5" opacity="1.000000" stroke="none" 
	d="
M405.900269,483.615814 
	C402.991669,462.303162 400.336731,440.951843 397.095367,419.689911 
	C394.432190,402.220734 384.202911,390.672516 367.618469,384.676788 
	C366.415466,384.241882 365.337952,383.459869 364.084320,382.518372 
	C374.599792,381.979706 385.216431,380.928467 395.372345,385.891632 
	C408.549591,392.331299 416.582031,402.586517 419.989197,416.654816 
	C420.745026,419.775604 421.144043,422.982819 421.886414,426.966187 
	C423.361572,436.519470 424.657654,445.256775 425.953735,453.994080 
	C426.979279,463.343964 428.004822,472.693848 428.727356,482.729095 
	C420.916351,483.481567 413.408295,483.548706 405.900269,483.615814 
z"/>
<path fill="#8379C1" opacity="1.000000" stroke="none" 
	d="
M194.983093,114.048088 
	C178.271133,114.055817 161.559158,114.063545 144.377533,113.999840 
	C143.398224,100.680168 153.251953,87.348839 166.211487,83.150391 
	C169.438324,82.105003 170.088882,80.567657 170.051331,77.584557 
	C169.917465,66.947090 169.975830,56.306843 170.008926,45.667797 
	C170.026306,40.086891 173.002899,37.048775 178.363663,37.000355 
	C183.276093,36.955986 185.991074,40.011700 185.997589,45.627934 
	C186.011261,57.430683 186.012848,69.233452 185.598358,81.510231 
	C180.898636,81.984253 176.619980,81.984253 172.341309,81.984253 
	C185.492905,89.235031 194.710815,98.394264 194.983093,114.048088 
z"/>
<path fill="#8379C1" opacity="1.000000" stroke="none" 
	d="
M353.049988,113.899887 
	C352.855896,113.949913 352.661804,113.999947 352.183594,114.151337 
	C341.114044,114.357277 330.328613,114.461861 318.778137,114.791359 
	C312.967804,114.665527 307.922485,114.314774 302.877197,113.964020 
	C302.608826,100.199249 312.752594,87.059097 325.621277,83.065323 
	C328.369324,82.212471 329.092651,80.867668 329.057312,78.161957 
	C328.918396,67.524307 328.930756,56.883129 329.027405,46.244534 
	C329.083984,40.016193 331.880157,37.053085 337.348511,37.000309 
	C341.869415,36.956676 344.970428,39.983589 344.987183,44.629051 
	C345.030945,56.764526 345.012360,68.900230 344.593414,81.509964 
	C339.699249,81.984093 335.230316,81.984093 330.761414,81.984093 
	C330.712006,82.411621 330.662598,82.839149 330.613220,83.266678 
	C343.771606,89.376312 352.156586,98.933075 353.049988,113.899887 
z"/>
<path fill="#FFD15B" opacity="1.000000" stroke="none" 
	d="
M253.249878,27.249882 
	C256.673065,23.818266 259.767395,20.552790 263.039886,17.476822 
	C266.905487,13.843323 271.691650,13.982863 275.121796,17.630814 
	C278.202209,20.906843 277.830597,25.631294 274.221405,29.263903 
	C271.289764,32.214592 268.370209,35.177311 265.459290,38.148392 
	C265.402588,38.206253 265.518463,38.433128 265.541534,38.529705 
	C269.385986,39.008217 273.329193,39.052238 277.010956,40.055542 
	C283.538940,41.834415 285.081482,48.281864 280.264587,53.182419 
	C270.579926,63.035263 260.765991,72.761124 250.989777,82.523766 
	C247.665009,85.843903 242.007278,86.220741 238.927750,83.380417 
	C236.141220,80.810326 236.152847,74.470070 239.239700,71.291580 
	C244.319244,66.061234 249.590347,61.016895 255.686737,54.999889 
	C251.550507,54.999889 248.498306,54.993511 245.446136,55.001652 
	C242.278595,55.010101 239.139618,55.042416 237.744507,51.295368 
	C236.312729,47.449856 236.529373,43.948162 239.576553,40.910664 
	C244.056015,36.445446 248.525909,31.970621 253.249878,27.249882 
z"/>
<path fill="#E0EDF1" opacity="1.000000" stroke="none" 
	d="
M454.590942,325.044098 
	C460.024567,324.936279 465.135559,324.974365 470.666748,324.954468 
	C477.893494,328.294525 482.658936,333.016937 484.166656,341.046906 
	C485.961029,350.603455 482.235138,359.371185 472.572815,364.508911 
	C465.984406,367.200836 459.951691,366.707733 453.900055,365.112152 
	C445.655151,361.824707 441.876404,355.070099 441.126160,346.865845 
	C440.200012,336.737366 445.338287,329.661591 454.590942,325.044098 
z"/>
<path fill="#E0EDF1" opacity="1.000000" stroke="none" 
	d="
M42.590500,325.043671 
	C48.023911,324.933777 53.134716,324.970337 58.665779,324.952576 
	C68.054138,329.148407 73.549179,335.936371 72.884956,346.145203 
	C72.348824,354.385284 68.686401,361.199951 60.046822,365.064301 
	C53.236412,367.404327 47.237839,366.469269 41.252449,364.789215 
	C32.682888,360.966156 29.237383,353.527802 29.197844,344.991058 
	C29.156183,335.995483 33.890053,329.140625 42.590500,325.043671 
z"/>
<path fill="#678D98" opacity="1.000000" stroke="none" 
	d="
M41.215591,365.154877 
	C47.237839,366.469269 53.236412,367.404327 59.688950,365.117249 
	C65.182594,375.355927 70.217911,385.617126 75.393471,395.807098 
	C80.662262,406.180603 86.069107,416.484039 91.739014,426.984253 
	C90.960373,435.948425 89.858215,444.746490 88.456314,453.766449 
	C86.181465,450.877441 83.958717,447.894714 82.271309,444.634857 
	C71.009140,422.877960 59.881134,401.051697 48.660240,379.273376 
	C46.270615,374.635376 43.677891,370.102081 41.215591,365.154877 
z"/>
<path fill="#678D98" opacity="1.000000" stroke="none" 
	d="
M453.929840,365.473511 
	C459.951691,366.707733 465.984406,367.200836 472.359650,364.791199 
	C465.716003,378.447754 458.713287,392.131989 451.635590,405.777283 
	C443.331238,421.787384 434.961761,437.763672 426.287109,453.874359 
	C424.657654,445.256775 423.361572,436.519470 422.081238,427.321442 
	C428.707520,414.345276 435.352356,401.847778 441.916077,389.307800 
	C445.994110,381.516724 449.949280,373.661346 453.929840,365.473511 
z"/>
<path fill="#7CA1B1" opacity="1.000000" stroke="none" 
	d="
M290.518982,381.953308 
	C290.046539,363.594696 290.036987,345.260376 290.500488,326.394196 
	C298.705078,325.925140 306.436615,325.988007 314.168121,326.050842 
	C314.119965,344.367249 314.071838,362.683655 314.074097,381.461182 
	C306.410278,381.940765 298.696075,381.959198 290.518982,381.953308 
z"/>
<path fill="#6F62B6" opacity="1.000000" stroke="none" 
	d="
M302.439880,113.972519 
	C307.922485,114.314774 312.967804,114.665527 318.431183,115.033829 
	C318.151184,131.604584 305.951782,143.732147 289.473907,144.226746 
	C283.994293,144.391220 278.512939,144.497620 272.606140,144.531494 
	C272.928314,143.865173 273.594360,143.073395 274.437408,142.764343 
	C287.409607,138.008835 293.645111,128.308197 294.986511,114.565735 
	C297.323334,114.099190 299.662933,114.040100 302.439880,113.972519 
z"/>
<path fill="#6F62B6" opacity="1.000000" stroke="none" 
	d="
M353.512695,113.937485 
	C352.156586,98.933075 343.771606,89.376312 330.613220,83.266678 
	C330.662598,82.839149 330.712006,82.411621 330.761414,81.984093 
	C335.230316,81.984093 339.699249,81.984093 344.641541,81.974182 
	C361.103058,86.257065 369.954254,96.727730 372.059387,113.467804 
	C366.049194,113.908112 360.012299,113.941597 353.512695,113.937485 
z"/>
<path fill="#FBCF5F" opacity="1.000000" stroke="none" 
	d="
M314.503693,326.025146 
	C306.436615,325.988007 298.705078,325.925140 290.514587,325.924957 
	C288.974609,325.843719 287.893555,325.699829 286.579926,325.339783 
	C290.543671,315.532623 294.740662,305.941956 298.935791,296.350433 
	C299.784515,294.409912 300.626007,292.466187 302.081238,289.120636 
	C307.333618,301.950165 312.080933,313.546021 316.838104,325.502991 
	C316.178406,325.909241 315.508820,325.954376 314.503693,326.025146 
z"/>
<path fill="#6F62B6" opacity="1.000000" stroke="none" 
	d="
M195.166992,114.102875 
	C194.710815,98.394264 185.492905,89.235031 172.341309,81.984253 
	C176.619980,81.984253 180.898636,81.984253 185.650085,81.974075 
	C202.225876,86.190491 210.575653,97.113251 213.078110,113.527466 
	C207.651047,113.980179 202.180359,114.029228 196.220306,114.144638 
	C195.730927,114.210999 195.350891,114.157661 195.166992,114.102875 
z"/>
<path fill="#FBCF5F" opacity="1.000000" stroke="none" 
	d="
M225.056335,324.584503 
	C219.139297,325.239746 213.169998,325.532166 207.199478,325.797211 
	C205.406845,325.876801 203.610794,325.880096 201.343643,325.988617 
	C199.588104,326.023315 198.305237,325.987732 196.643265,325.905945 
	C199.479523,318.264069 202.725800,310.681305 205.897476,303.067474 
	C207.523361,299.164398 209.015930,295.205750 211.777390,291.266846 
	C216.186127,302.248291 220.594879,313.229767 225.056335,324.584503 
z"/>
<path fill="#FDB139" opacity="1.000000" stroke="none" 
	d="
M359.796173,320.693634 
	C359.896851,322.390808 359.833405,323.726501 359.719849,325.462219 
	C359.298004,325.898041 358.926239,325.933899 357.921509,325.690796 
	C349.511475,325.263458 341.734406,325.115082 333.957367,324.966736 
	C334.163208,324.460632 334.369019,323.954529 334.808228,322.863586 
	C339.417786,312.176819 343.793945,302.074829 348.170105,291.972870 
	C355.203003,300.127686 358.067566,309.967224 359.796173,320.693634 
z"/>
<path fill="#FCD05F" opacity="1.000000" stroke="none" 
	d="
M164.454636,295.096130 
	C169.773224,304.968536 174.842590,315.057953 179.894806,325.504486 
	C171.942108,325.899078 164.006577,325.936493 155.621597,325.904724 
	C154.834778,314.670380 157.759521,304.470673 164.454636,295.096130 
z"/>
<path fill="#FBCF5E" opacity="1.000000" stroke="none" 
	d="
M333.745850,325.039307 
	C341.734406,325.115082 349.511475,325.263458 357.651215,325.610352 
	C349.992432,325.858978 341.970978,325.909088 333.485962,325.889526 
	C333.090576,325.509827 333.261200,325.273834 333.745850,325.039307 
z"/>
<path fill="#9CC3CD" opacity="1.000000" stroke="none" 
	d="
M399.360962,296.980896 
	C399.202850,296.554718 399.341400,296.007446 399.669586,295.245117 
	C399.791992,295.639984 399.724792,296.249908 399.360962,296.980896 
z"/>
<path fill="#9CC3CD" opacity="1.000000" stroke="none" 
	d="
M399.920258,144.663879 
	C399.601013,144.476822 399.342834,143.974060 399.060364,143.182968 
	C399.351135,143.379150 399.666229,143.863663 399.920258,144.663879 
z"/>
<path fill="#678D98" opacity="1.000000" stroke="none" 
	d="
M405.442749,483.686646 
	C413.408295,483.548706 420.916351,483.481567 428.754456,483.153351 
	C443.242584,482.928375 457.400757,483.015625 471.558472,482.967957 
	C475.538696,482.954529 478.367767,484.667511 479.612122,488.260284 
	C480.902618,491.986298 480.231171,495.592926 476.567902,497.814880 
	C475.273468,498.600006 473.521301,498.939789 471.974457,498.950531 
	C459.314850,499.038239 446.654388,499.000183 433.994171,499.000183 
	C304.060577,499.000183 174.126938,499.019226 44.193504,498.870392 
	C41.455593,498.867279 38.166023,497.547302 36.129986,495.727264 
	C33.828781,493.670166 32.601589,489.970612 35.443359,487.374084 
	C37.636093,485.370636 40.753990,483.282410 43.523514,483.193512 
	C57.002934,482.760803 70.503540,482.988220 84.458855,482.944336 
	C86.504677,483.217804 88.087906,483.797516 89.671974,483.799805 
	C115.065765,483.836517 140.459656,483.799591 166.793060,483.823669 
	C221.154953,483.855072 274.577332,483.842255 328.467102,483.870117 
	C336.349091,483.881439 343.763611,483.852081 351.178162,483.822754 
	C369.113861,483.801025 387.049561,483.779266 405.442749,483.686646 
z"/>
<path fill="#837AC1" opacity="1.000000" stroke="none" 
	d="
M304.077271,200.781433 
	C299.905365,195.856827 299.929352,193.616165 304.005585,189.399887 
	C305.858490,187.483292 307.735107,185.586655 309.664429,183.747513 
	C313.600586,179.995346 317.046600,179.832718 320.951172,183.769272 
	C324.089203,186.933029 326.735382,190.584641 329.599823,194.019760 
	C330.465393,194.031952 331.330963,194.044144 332.196533,194.056335 
	C334.942169,190.744141 337.486664,187.235641 340.481537,184.166641 
	C344.767456,179.774582 348.058411,179.908783 352.534851,184.108383 
	C363.449890,194.348389 363.463104,195.099243 352.913544,205.670395 
	C347.955933,210.638153 347.955933,210.638123 352.997101,215.687180 
	C363.389923,226.096268 363.385315,226.508911 352.761353,236.927872 
	C347.635406,241.954910 345.346161,241.961685 340.248871,236.958649 
	C337.514496,234.274811 334.789612,231.581223 332.042725,228.910263 
	C331.820068,228.693756 331.459747,228.618774 330.467743,228.147568 
	C327.402679,231.199356 324.192383,234.490982 320.876984,237.673111 
	C316.589813,241.787918 313.612579,241.735062 309.230835,237.625000 
	C298.344940,227.414062 298.308777,226.239471 308.563995,215.978455 
	C313.912354,210.627106 313.912354,210.627060 308.575928,205.285233 
	C307.162689,203.870575 305.749176,202.456161 304.077271,200.781433 
z"/>
<path fill="#837AC1" opacity="1.000000" stroke="none" 
	d="
M206.828201,233.755508 
	C197.649734,242.927597 196.516708,242.940536 187.458649,233.803970 
	C185.597488,231.926682 183.991028,229.796875 181.374649,226.741043 
	C177.764893,230.861496 175.066177,234.246460 172.046692,237.315872 
	C167.735199,241.698685 164.368530,241.651138 160.021683,237.538376 
	C148.977005,227.088425 148.938995,226.416382 159.807724,215.673935 
	C161.212158,214.285797 163.128769,213.415863 165.443512,211.885941 
	C161.187881,207.603470 158.149475,204.619293 155.194275,201.554886 
	C150.702057,196.896667 150.714676,193.702484 155.139053,189.154602 
	C165.824402,178.171051 165.824417,178.171036 176.514145,188.866547 
	C181.520050,193.875153 181.520157,193.875290 186.475281,188.929169 
	C187.771729,187.635071 189.063980,186.336746 190.363632,185.045868 
	C195.888535,179.558197 198.739609,179.515823 204.191559,184.864792 
	C205.736633,186.380676 207.327164,187.862747 208.747818,189.490402 
	C212.011887,193.230072 212.165604,197.115982 208.665894,200.616226 
	C205.402832,203.879807 201.643036,206.646759 196.759491,210.764145 
	C201.165085,214.458801 204.238037,216.739960 206.961884,219.381149 
	C212.825104,225.066391 212.767639,227.674759 206.828201,233.755508 
z"/>
<path fill="#FDCF5D" opacity="1.000000" stroke="none" 
	d="
M247.871201,269.910522 
	C243.801208,281.316559 239.236633,292.668732 234.672073,304.020905 
	C234.221268,304.079407 233.770462,304.137909 233.319656,304.196411 
	C228.679703,293.008240 224.039734,281.820068 219.262787,270.304382 
	C228.542725,269.936798 237.959671,269.896698 247.871201,269.910522 
z"/>
<path fill="#FBCF5E" opacity="1.000000" stroke="none" 
	d="
M293.143463,271.983368 
	C288.558411,282.599579 283.973358,293.215790 278.833496,305.116577 
	C273.935760,292.778809 269.548065,281.725891 265.066650,270.313934 
	C274.346100,269.721069 283.719299,269.487213 293.397156,269.510620 
	C293.515686,270.506409 293.329559,271.244904 293.143463,271.983368 
z"/>
<path fill="#FBCF5E" opacity="1.000000" stroke="none" 
	d="
M201.882553,270.819336 
	C197.733521,282.690002 193.142090,294.516052 188.144836,307.387360 
	C183.590668,298.946625 179.549759,291.457153 175.227325,283.699646 
	C182.271240,276.060150 191.264069,272.178925 201.882553,270.819336 
z"/>
<path fill="#7163B4" opacity="1.000000" stroke="none" 
	d="
M348.022888,291.665466 
	C343.793945,302.074829 339.417786,312.176819 334.862854,322.595093 
	C332.647461,315.768646 330.610809,308.625824 328.319458,300.920044 
	C328.079254,299.939484 328.093781,299.521912 328.370178,298.868164 
	C331.466675,292.762268 334.301300,286.892548 337.135925,281.022827 
	C340.715820,284.467926 344.295746,287.912994 348.022888,291.665466 
z"/>
<path fill="#FDB139" opacity="1.000000" stroke="none" 
	d="
M336.959045,280.725525 
	C334.301300,286.892548 331.466675,292.762268 328.106232,298.647034 
	C324.332367,294.789886 321.084351,290.917755 317.836304,287.045593 
	C317.836304,287.045593 317.934052,287.024445 317.863342,286.854950 
	C317.646088,286.404694 317.441681,286.175598 317.179382,285.998199 
	C316.879333,285.473785 316.579285,284.949371 316.081146,283.914856 
	C315.626160,283.206390 315.369263,283.007996 315.112366,282.809601 
	C315.112366,282.809601 315.231354,282.934418 315.273132,282.496674 
	C313.819672,278.109406 312.324463,274.159851 310.829254,270.210327 
	C320.489166,271.053650 329.032623,274.732727 336.959045,280.725525 
z"/>
<path fill="#7163B4" opacity="1.000000" stroke="none" 
	d="
M310.422241,270.142822 
	C312.324463,274.159851 313.819672,278.109406 315.333435,282.435059 
	C308.195679,279.216492 301.039429,275.621765 293.513306,272.005219 
	C293.329559,271.244904 293.515686,270.506409 293.862000,269.523468 
	C299.353210,269.544434 304.684204,269.809875 310.422241,270.142822 
z"/>
<path fill="#8379C1" opacity="1.000000" stroke="none" 
	d="
M327.999695,483.829437 
	C274.577332,483.842255 221.154953,483.855072 167.245529,483.801331 
	C166.827530,471.075409 166.894379,458.415955 166.966232,445.756531 
	C167.053818,430.324036 177.242905,419.985107 192.592697,419.959900 
	C231.080109,419.896698 269.567657,419.911041 308.780029,420.178040 
	C321.706635,424.164551 328.816162,435.268646 328.139221,447.872437 
	C327.497131,459.826111 328.000214,471.841309 327.999695,483.829437 
z"/>
<path fill="#6E62B6" opacity="1.000000" stroke="none" 
	d="
M328.467102,483.870117 
	C328.000214,471.841309 327.497131,459.826111 328.139221,447.872437 
	C328.816162,435.268646 321.706635,424.164551 309.246216,420.224243 
	C314.958801,419.954773 320.934204,419.766602 326.900604,419.922302 
	C340.543335,420.278381 350.878784,430.900177 350.978912,444.601715 
	C351.072266,457.376190 351.048767,470.151489 351.127441,483.374573 
	C343.763611,483.852081 336.349091,483.881439 328.467102,483.870117 
z"/>
<path fill="#FBCF5F" opacity="1.000000" stroke="none" 
	d="
M270.052673,324.584900 
	C260.927155,325.128632 251.745682,325.299316 242.228409,325.214539 
	C246.683868,313.686005 251.475128,302.412933 256.750397,290.001068 
	C261.381165,301.960815 265.688934,313.086334 270.052673,324.584900 
z"/>
<path fill="#FBCF5F" opacity="1.000000" stroke="none" 
	d="
M317.860107,287.425568 
	C321.084351,290.917755 324.332367,294.789886 327.844360,298.883209 
	C328.093781,299.521912 328.079254,299.939484 328.079834,300.670227 
	C327.310486,302.404694 326.526001,303.825928 325.282562,306.078705 
	C322.632111,299.532623 320.257996,293.669098 317.860107,287.425568 
z"/>
<path fill="#7163B4" opacity="1.000000" stroke="none" 
	d="
M315.197632,283.030365 
	C315.369263,283.007996 315.626160,283.206390 315.894623,283.676941 
	C315.636658,283.771606 315.428894,283.538940 315.197632,283.030365 
z"/>
<path fill="#FBCF5F" opacity="1.000000" stroke="none" 
	d="
M317.203064,286.247681 
	C317.441681,286.175598 317.646088,286.404694 317.871399,286.904297 
	C317.709076,286.914490 317.467896,286.705841 317.203064,286.247681 
z"/>
</svg>