<?xml version="1.0" standalone="no"?>
<!DOCTYPE svg PUBLIC "-//W3C//DTD SVG 20010904//EN"
 "http://www.w3.org/TR/2001/REC-SVG-20010904/DTD/svg10.dtd">
<svg version="1.0" xmlns="http://www.w3.org/2000/svg"
 width="28.000000pt" height="28.000000pt" viewBox="0 0 32.000000 32.000000"
 preserveAspectRatio="xMidYMid meet">

<g transform="translate(0.000000,32.000000) scale(0.100000,-0.100000)"
fill="#000000" stroke="none">
<path d="M45 289 c-4 -5 0 -18 9 -28 9 -10 16 -24 16 -33 0 -8 9 -27 21 -42
l20 -26 -20 -26 c-12 -15 -21 -34 -21 -42 0 -9 -7 -23 -16 -33 -28 -31 -8 -39
106 -39 114 0 134 8 106 39 -9 10 -16 24 -16 33 0 8 -9 27 -21 42 l-20 26 20
26 c12 15 21 34 21 42 0 9 7 23 16 33 9 10 13 23 9 28 -8 15 -222 15 -230 0z
m215 -9 c0 -6 -40 -10 -101 -10 -64 0 -98 4 -94 10 3 6 48 10 101 10 56 0 94
-4 94 -10z m-32 -61 c-6 -17 -21 -35 -34 -41 -31 -14 -30 -22 4 -39 l27 -13
-32 -4 c-18 -2 -48 -2 -65 0 l-33 4 28 13 c33 17 34 25 3 39 -13 6 -28 24 -34
41 l-11 31 79 0 79 0 -11 -31z m10 -136 c3 -10 -17 -13 -77 -13 -75 0 -92 6
-74 24 12 12 146 2 151 -11z m22 -43 c0 -6 -40 -10 -100 -10 -60 0 -100 4
-100 10 0 6 40 10 100 10 60 0 100 -4 100 -10z"/>
</g>
</svg>
