<?xml version="1.0" standalone="no"?>
<!DOCTYPE svg PUBLIC "-//W3C//DTD SVG 20010904//EN"
 "http://www.w3.org/TR/2001/REC-SVG-20010904/DTD/svg10.dtd">
<svg version="1.0" xmlns="http://www.w3.org/2000/svg"
 width="10.000000pt" height="10.000000pt" viewBox="0 0 512.000000 512.000000"
 preserveAspectRatio="xMidYMid meet">

<g transform="translate(0.000000,512.000000) scale(0.100000,-0.100000)"
fill="#000000" stroke="none">
<path d="M4009 5102 c-102 -27 -165 -72 -333 -241 l-156 -156 593 -593 592
-592 157 157 c177 178 219 238 244 351 31 138 2 273 -84 390 -23 33 -170 185
-325 338 -244 242 -291 284 -347 311 -115 55 -221 66 -341 35z"/>
<path d="M1734 2918 c-1007 -1007 -1564 -1572 -1567 -1588 -3 -14 -43 -282
-88 -596 -58 -404 -80 -582 -75 -609 10 -51 69 -111 119 -120 45 -9 1176 150
1222 171 17 8 729 713 1583 1566 l1552 1553 -593 593 -592 592 -1561 -1562z"/>
</g>
</svg>
