<?xml version="1.0" standalone="no"?>
<!DOCTYPE svg PUBLIC "-//W3C//DTD SVG 20010904//EN"
 "http://www.w3.org/TR/2001/REC-SVG-20010904/DTD/svg10.dtd">
<svg version="1.0" xmlns="http://www.w3.org/2000/svg"
 width="28.000000pt" height="28.000000pt" viewBox="0 0 32.000000 32.000000"
 preserveAspectRatio="xMidYMid meet">

<g transform="translate(0.000000,32.000000) scale(0.100000,-0.100000)"
fill="#000000" stroke="none">
<path d="M115 246 c-91 -34 -111 -46 -113 -64 -2 -14 5 -30 20 -42 l23 -20
-23 -20 c-15 -12 -22 -28 -20 -42 3 -23 4 -23 158 -23 154 0 155 0 158 23 2
14 -5 30 -20 42 l-23 20 23 19 c25 22 29 59 7 67 -8 3 -20 24 -26 45 -15 49
-22 49 -164 -5z m150 3 c4 -17 5 -33 2 -35 -2 -3 -47 -3 -98 -2 l-94 3 85 32
c47 17 88 32 92 32 3 1 9 -13 13 -30z m42 -65 c3 -9 -3 -21 -16 -30 -27 -19
-27 -49 0 -68 13 -9 19 -21 16 -30 -9 -23 -285 -23 -294 0 -3 9 3 21 16 30 11
8 21 24 21 34 0 10 -10 26 -21 34 -13 9 -19 21 -16 30 9 23 285 23 294 0z"/>
<path d="M111 144 c0 -11 3 -14 6 -6 3 7 2 16 -1 19 -3 4 -6 -2 -5 -13z"/>
<path d="M111 94 c0 -11 3 -14 6 -6 3 7 2 16 -1 19 -3 4 -6 -2 -5 -13z"/>
</g>
</svg>
