<?xml version="1.0" standalone="no"?>
<!DOCTYPE svg PUBLIC "-//W3C//DTD SVG 20010904//EN"
 "http://www.w3.org/TR/2001/REC-SVG-20010904/DTD/svg10.dtd">
<svg version="1.0" xmlns="http://www.w3.org/2000/svg"
 width="32.000000pt" height="32.000000pt" viewBox="0 0 32.000000 32.000000"
 preserveAspectRatio="xMidYMid meet">

<g transform="translate(0.000000,32.000000) scale(0.100000,-0.100000)"
fill="#000000" stroke="none">
<path d="M113 301 c-4 -14 -15 -21 -42 -23 -33 -3 -36 -6 -39 -35 -2 -19 1
-33 7 -33 7 0 11 -34 11 -93 0 -59 4 -97 12 -105 8 -8 45 -12 100 -12 106 0
108 2 108 124 0 54 4 86 11 86 6 0 9 14 7 33 -3 29 -6 32 -39 35 -27 2 -38 9
-42 23 -7 28 -87 28 -94 0z m77 -11 c0 -5 -13 -10 -30 -10 -16 0 -30 5 -30 10
0 6 14 10 30 10 17 0 30 -4 30 -10z m80 -45 c0 -12 -19 -15 -110 -15 -91 0
-110 3 -110 15 0 12 19 15 110 15 91 0 110 -3 110 -15z m-22 -127 l-3 -93 -85
0 -85 0 -3 93 -3 92 91 0 91 0 -3 -92z"/>
<path d="M100 115 c0 -43 4 -75 10 -75 6 0 10 32 10 75 0 43 -4 75 -10 75 -6
0 -10 -32 -10 -75z"/>
<path d="M150 115 c0 -43 4 -75 10 -75 6 0 10 32 10 75 0 43 -4 75 -10 75 -6
0 -10 -32 -10 -75z"/>
<path d="M200 115 c0 -43 4 -75 10 -75 6 0 10 32 10 75 0 43 -4 75 -10 75 -6
0 -10 -32 -10 -75z"/>
</g>
</svg>
