<svg xmlns="http://www.w3.org/2000/svg" xmlns:xlink="http://www.w3.org/1999/xlink" width="500" zoomAndPan="magnify" viewBox="0 0 375 374.999991" height="500" preserveAspectRatio="xMidYMid meet" version="1.0"><defs><clipPath id="9ff201e820"><path d="M 112.5 146.589844 L 262.5 146.589844 L 262.5 228.339844 L 112.5 228.339844 Z M 112.5 146.589844 " clip-rule="nonzero"/></clipPath></defs><g clip-path="url(#9ff201e820)"><path fill="#000000" d="M 260.5 226.351562 C 259.265625 227.585938 257.5625 228.355469 255.671875 228.355469 C 253.785156 228.355469 252.082031 227.589844 250.847656 226.351562 L 187.5 163.035156 L 124.152344 226.351562 C 122.917969 227.585938 121.207031 228.347656 119.324219 228.347656 C 115.554688 228.347656 112.503906 225.296875 112.503906 221.527344 C 112.503906 219.648438 113.265625 217.9375 114.5 216.707031 L 182.671875 148.582031 C 183.90625 147.347656 185.613281 146.578125 187.5 146.578125 C 189.386719 146.578125 191.09375 147.339844 192.328125 148.582031 L 260.5 216.707031 C 261.734375 217.9375 262.503906 219.640625 262.503906 221.527344 C 262.503906 223.414062 261.742188 225.117188 260.5 226.351562 Z M 260.5 226.351562 " fill-opacity="1" fill-rule="nonzero"/></g></svg>