<?xml version="1.0" standalone="no"?>
<!DOCTYPE svg PUBLIC "-//W3C//DTD SVG 20010904//EN"
 "http://www.w3.org/TR/2001/REC-SVG-20010904/DTD/svg10.dtd">
<svg version="1.0" xmlns="http://www.w3.org/2000/svg"
 width="8.000000pt" height="8.000000pt" viewBox="0 0 24.000000 24.000000"
 preserveAspectRatio="xMidYMid meet">

<g transform="translate(0.000000,24.000000) scale(0.100000,-0.100000)"
fill="#000000" stroke="none">
<path d="M5 230 c-3 -5 15 -32 41 -60 l47 -50 -47 -50 c-26 -28 -44 -55 -41
-60 9 -15 12 -14 65 36 l50 47 50 -47 c28 -26 55 -44 60 -41 15 9 14 12 -36
65 l-47 50 47 50 c26 28 44 55 41 60 -9 15 -12 14 -65 -36 l-50 -47 -50 47
c-53 50 -56 51 -65 36z"/>
</g>
</svg>
