<?xml version="1.0" standalone="no"?>
<!DOCTYPE svg PUBLIC "-//W3C//DTD SVG 20010904//EN"
 "http://www.w3.org/TR/2001/REC-SVG-20010904/DTD/svg10.dtd">
<svg version="1.0" xmlns="http://www.w3.org/2000/svg"
 width="700.000000pt" height="700.000000pt" viewBox="0 0 700.000000 700.000000"
 preserveAspectRatio="xMidYMid meet">
<metadata>
Created by potrace 1.14, written by Peter Selinger 2001-2017
</metadata>
<g transform="translate(0.000000,700.000000) scale(0.100000,-0.100000)"
fill="#000000" stroke="none">
<path d="M1885 6919 c-183 -19 -401 -82 -559 -161 -443 -221 -677 -599 -653
-1056 17 -335 162 -570 477 -775 209 -135 327 -181 885 -342 504 -145 683
-215 822 -320 126 -94 195 -208 212 -350 45 -370 -207 -680 -643 -790 -522
-132 -1083 33 -1264 372 -33 63 -72 194 -72 245 l0 28 -266 0 -267 0 7 -69
c15 -161 91 -371 186 -511 23 -34 74 -96 113 -136 l70 -74 -203 0 -202 0 5
-867 c5 -891 7 -938 48 -1137 82 -394 303 -689 614 -819 306 -128 719 -113
995 34 96 52 205 135 272 207 111 122 198 292 222 437 18 101 35 98 75 -13 62
-174 166 -326 285 -416 159 -121 307 -167 541 -169 89 -1 180 4 225 12 153 27
305 87 426 167 28 19 54 34 57 34 4 0 37 -21 74 -47 142 -97 339 -175 532
-208 110 -20 323 -19 442 1 558 93 1008 543 1104 1102 20 119 20 339 0 455
-32 183 -110 376 -218 537 -65 98 -251 283 -351 350 -124 82 -288 157 -423
191 -199 50 -450 54 -636 10 -49 -12 -90 -21 -93 -21 -2 0 -4 36 -4 80 l0 80
-516 0 c-482 0 -516 1 -510 17 4 9 75 210 159 445 l152 428 842 0 c464 0 843
-1 843 -2 0 -2 94 -266 209 -588 l208 -585 266 -3 c210 -2 267 0 266 10 0 7
-343 947 -762 2088 l-763 2075 -266 3 -266 2 -10 -27 c-5 -16 -231 -631 -502
-1368 -271 -737 -498 -1356 -505 -1375 l-12 -34 -22 74 c-31 101 -79 192 -151
288 -75 100 -157 175 -280 257 -200 134 -416 218 -875 341 -431 116 -498 138
-650 214 -291 144 -405 297 -405 545 0 176 51 297 180 425 177 176 365 247
686 257 265 8 424 -24 619 -125 105 -55 232 -173 282 -262 32 -56 67 -156 78
-222 l6 -38 249 0 249 0 -5 53 c-21 201 -82 366 -192 513 -225 302 -575 485
-1014 533 -111 12 -305 12 -423 0z m3306 -1644 c181 -506 328 -926 328 -932 1
-10 -141 -13 -675 -13 -537 0 -675 3 -671 13 3 10 616 1736 649 1830 7 17 16
27 26 25 12 -2 110 -266 343 -923z m-2751 -3302 c0 -682 -11 -784 -100 -968
-99 -206 -265 -349 -480 -417 -63 -19 -96 -23 -210 -23 -115 0 -145 4 -200 24
-195 69 -346 231 -404 432 -46 160 -48 186 -53 832 l-5 617 726 0 726 0 0
-497z m1661 442 c-152 -167 -278 -432 -316 -665 -19 -123 -19 -331 1 -451 20
-120 71 -274 126 -381 23 -45 44 -86 46 -90 5 -10 -105 -63 -174 -84 -81 -25
-273 -25 -363 0 -199 55 -359 193 -451 391 -81 175 -90 253 -90 863 l0 472
636 0 636 0 -51 -55z"/>
</g>
</svg>
